FrauncesItalic-BlackOpMaxGoofyMax.ufo
<glyph name="exclam" format="2">
  <advance width="669"/>
  <unicode hex="0021"/>
  <outline>
    <contour>
      <point x="558" y="1377" type="curve" smooth="yes"/>
      <point x="403" y="1377"/>
      <point x="312" y="1301"/>
      <point x="279" y="1172" type="curve" smooth="yes"/>
      <point x="271" y="1139"/>
      <point x="266" y="1089"/>
      <point x="264" y="1047" type="curve" smooth="yes"/>
      <point x="254" y="568" type="line" smooth="yes"/>
      <point x="252" y="495"/>
      <point x="278" y="465"/>
      <point x="332" y="465" type="curve" smooth="yes"/>
      <point x="388" y="465"/>
      <point x="428" y="495"/>
      <point x="462" y="568" type="curve" smooth="yes"/>
      <point x="685" y="1047" type="line" smooth="yes"/>
      <point x="706" y="1089"/>
      <point x="725" y="1139"/>
      <point x="734" y="1172" type="curve" smooth="yes"/>
      <point x="766" y="1301"/>
      <point x="714" y="1377"/>
    </contour>
    <component base="period" xOffset="14"/>
  </outline>
</glyph>
<glyph name="parenleft" format="2">
  <advance width="688"/>
  <unicode hex="0028"/>
  <outline>
    <contour>
      <point x="161" y="558" type="curve" smooth="yes"/>
      <point x="60" y="148"/>
      <point x="191" y="-146"/>
      <point x="395" y="-227" type="curve" smooth="yes"/>
      <point x="462" y="-253"/>
      <point x="512" y="-244"/>
      <point x="537" y="-200" type="curve" smooth="yes"/>
      <point x="553" y="-172"/>
      <point x="542" y="-141"/>
      <point x="519" y="-103" type="curve" smooth="yes"/>
      <point x="429" y="51"/>
      <point x="405" y="298"/>
      <point x="468" y="558" type="curve" smooth="yes"/>
      <point x="533" y="820"/>
      <point x="680" y="1070"/>
      <point x="847" y="1223" type="curve" smooth="yes"/>
      <point x="889" y="1261"/>
      <point x="915" y="1293"/>
      <point x="913" y="1320" type="curve" smooth="yes"/>
      <point x="910" y="1364"/>
      <point x="864" y="1374"/>
      <point x="785" y="1348" type="curve" smooth="yes"/>
      <point x="542" y="1267"/>
      <point x="264" y="970"/>
    </contour>
  </outline>
</glyph>
<glyph name="asterisk" format="2">
  <advance width="1062"/>
  <unicode hex="002A"/>
  <outline>
    <contour>
      <point x="651" y="860" type="line"/>
      <point x="695" y="1039"/>
      <point x="882" y="1144"/>
      <point x="915" y="1278" type="curve" smooth="yes"/>
      <point x="937" y="1361"/>
      <point x="879" y="1407"/>
      <point x="766" y="1407" type="curve" smooth="yes"/>
      <point x="645" y="1407"/>
      <point x="572" y="1361"/>
      <point x="552" y="1278" type="curve" smooth="yes"/>
      <point x="518" y="1144"/>
      <point x="653" y="1039"/>
      <point x="609" y="860" type="curve"/>
    </contour>
    <contour>
      <point x="628" y="882" type="curve"/>
      <point x="632" y="838" type="line"/>
      <point x="803" y="893"/>
      <point x="910" y="765"/>
      <point x="1039" y="805" type="curve" smooth="yes"/>
      <point x="1120" y="832"/>
      <point x="1160" y="915"/>
      <point x="1154" y="1029" type="curve" smooth="yes"/>
      <point x="1148" y="1150"/>
      <point x="1100" y="1199"/>
      <point x="1019" y="1172" type="curve" smooth="yes"/>
      <point x="891" y="1131"/>
      <point x="801" y="937"/>
    </contour>
    <contour>
      <point x="642" y="882" type="line"/>
      <point x="496" y="937"/>
      <point x="505" y="1131"/>
      <point x="397" y="1172" type="curve" smooth="yes"/>
      <point x="329" y="1199"/>
      <point x="253" y="1143"/>
      <point x="190" y="1029" type="curve" smooth="yes"/>
      <point x="122" y="907"/>
      <point x="123" y="832"/>
      <point x="190" y="805" type="curve" smooth="yes"/>
      <point x="301" y="765"/>
      <point x="473" y="893"/>
      <point x="618" y="838" type="curve"/>
    </contour>
    <contour>
      <point x="616" y="874" type="line"/>
      <point x="481" y="729"/>
      <point x="302" y="744"/>
      <point x="200" y="635" type="curve" smooth="yes"/>
      <point x="138" y="568"/>
      <point x="148" y="488"/>
      <point x="222" y="418" type="curve" smooth="yes"/>
      <point x="300" y="342"/>
      <point x="375" y="340"/>
      <point x="437" y="408" type="curve" smooth="yes"/>
      <point x="538" y="518"/>
      <point x="509" y="701"/>
      <point x="643" y="846" type="curve"/>
    </contour>
    <contour>
      <point x="609" y="846" type="line"/>
      <point x="671" y="701"/>
      <point x="551" y="518"/>
      <point x="597" y="408" type="curve" smooth="yes"/>
      <point x="626" y="340"/>
      <point x="709" y="347"/>
      <point x="819" y="418" type="curve" smooth="yes"/>
      <point x="935" y="492"/>
      <point x="978" y="568"/>
      <point x="949" y="635" type="curve" smooth="yes"/>
      <point x="903" y="744"/>
      <point x="712" y="729"/>
      <point x="650" y="874" type="curve"/>
    </contour>
  </outline>
</glyph>
<glyph name="comma" format="2">
  <advance width="592"/>
  <unicode hex="002C"/>
  <outline>
    <contour>
      <point x="155" y="11" type="curve" smooth="yes"/>
      <point x="213" y="-6" type="line" smooth="yes"/>
      <point x="251" y="-18"/>
      <point x="264" y="-23"/>
      <point x="264" y="-42" type="curve" smooth="yes"/>
      <point x="265" y="-80"/>
      <point x="205" y="-159"/>
      <point x="46" y="-230" type="curve" smooth="yes"/>
      <point x="-27" y="-262"/>
      <point x="-50" y="-298"/>
      <point x="-31" y="-345" type="curve" smooth="yes"/>
      <point x="-13" y="-390"/>
      <point x="47" y="-405"/>
      <point x="149" y="-356" type="curve" smooth="yes"/>
      <point x="366" y="-253"/>
      <point x="485" y="-56"/>
      <point x="483" y="157" type="curve" smooth="yes"/>
      <point x="481" y="276"/>
      <point x="417" y="374"/>
      <point x="276" y="374" type="curve" smooth="yes"/>
      <point x="140" y="374"/>
      <point x="46" y="266"/>
      <point x="47" y="163" type="curve" smooth="yes"/>
      <point x="48" y="86"/>
      <point x="83" y="33"/>
    </contour>
  </outline>
</glyph>
<glyph name="period" format="2">
  <advance width="574"/>
  <unicode hex="002E"/>
  <outline>
    <contour>
      <point x="209" y="-20" type="curve" smooth="yes"/>
      <point x="372" y="-20"/>
      <point x="478" y="73"/>
      <point x="477" y="188" type="curve" smooth="yes"/>
      <point x="476" y="287"/>
      <point x="420" y="363"/>
      <point x="290" y="363" type="curve" smooth="yes"/>
      <point x="112" y="363"/>
      <point x="8" y="255"/>
      <point x="9" y="142" type="curve" smooth="yes"/>
      <point x="9" y="51"/>
      <point x="78" y="-20"/>
    </contour>
  </outline>
</glyph>
<glyph name="one" format="2">
  <advance width="854"/>
  <unicode hex="0031"/>
  <outline>
    <contour>
      <point x="304" y="1085" type="line" smooth="yes"/>
      <point x="233" y="1085"/>
      <point x="211" y="1130"/>
      <point x="229" y="1196" type="curve" smooth="yes"/>
      <point x="246" y="1260"/>
      <point x="290" y="1309"/>
      <point x="375" y="1309" type="curve" smooth="yes"/>
      <point x="451" y="1309" type="line" smooth="yes"/>
      <point x="558" y="1309"/>
      <point x="616" y="1345"/>
      <point x="696" y="1382" type="curve" smooth="yes"/>
      <point x="744" y="1405"/>
      <point x="776" y="1416"/>
      <point x="807" y="1416" type="curve" smooth="yes"/>
      <point x="873" y="1416"/>
      <point x="906" y="1379"/>
      <point x="886" y="1307" type="curve" smooth="yes"/>
      <point x="633" y="310" type="line" smooth="yes"/>
      <point x="618" y="252"/>
      <point x="622" y="224"/>
      <point x="659" y="212" type="curve" smooth="yes"/>
      <point x="722" y="193" type="line" smooth="yes"/>
      <point x="759" y="181"/>
      <point x="776" y="152"/>
      <point x="776" y="110" type="curve" smooth="yes"/>
      <point x="776" y="40"/>
      <point x="729" y="0"/>
      <point x="661" y="0" type="curve" smooth="yes"/>
      <point x="85" y="0" type="line" smooth="yes"/>
      <point x="15" y="0"/>
      <point x="-12" y="35"/>
      <point x="-12" y="94" type="curve" smooth="yes"/>
      <point x="-12" y="148"/>
      <point x="20" y="187"/>
      <point x="72" y="200" type="curve" smooth="yes"/>
      <point x="145" y="219" type="line" smooth="yes"/>
      <point x="179" y="227"/>
      <point x="201" y="255"/>
      <point x="216" y="311" type="curve" smooth="yes"/>
      <point x="386" y="976" type="line" smooth="yes"/>
      <point x="409" y="1063"/>
      <point x="394" y="1085"/>
      <point x="345" y="1085" type="curve" smooth="yes"/>
    </contour>
  </outline>
</glyph>
<glyph name="question" format="2">
  <advance width="1071"/>
  <unicode hex="003F"/>
  <outline>
    <contour>
      <point x="384" y="604" type="line" smooth="yes"/>
      <point x="387" y="679"/>
      <point x="422" y="737"/>
      <point x="522" y="787" type="curve" smooth="yes"/>
      <point x="583" y="817" type="line" smooth="yes"/>
      <point x="668" y="861"/>
      <point x="708" y="920"/>
      <point x="733" y="1018" type="curve" smooth="yes"/>
      <point x="761" y="1135"/>
      <point x="740" y="1192"/>
      <point x="688" y="1192" type="curve" smooth="yes"/>
      <point x="640" y="1192"/>
      <point x="606" y="1166"/>
      <point x="594" y="1117" type="curve" smooth="yes"/>
      <point x="577" y="1048" type="line" smooth="yes"/>
      <point x="539" y="898"/>
      <point x="446" y="815"/>
      <point x="316" y="815" type="curve" smooth="yes"/>
      <point x="210" y="815"/>
      <point x="157" y="901"/>
      <point x="190" y="1027" type="curve" smooth="yes"/>
      <point x="233" y="1195"/>
      <point x="458" y="1359"/>
      <point x="747" y="1359" type="curve" smooth="yes"/>
      <point x="1083" y="1359"/>
      <point x="1195" y="1213"/>
      <point x="1148" y="1005" type="curve" smooth="yes"/>
      <point x="1106" y="823"/>
      <point x="983" y="720"/>
      <point x="754" y="674" type="curve" smooth="yes"/>
      <point x="719" y="668" type="line" smooth="yes"/>
      <point x="672" y="659"/>
      <point x="664" y="633"/>
      <point x="649" y="607" type="curve" smooth="yes"/>
      <point x="642" y="595" type="line" smooth="yes"/>
      <point x="581" y="487"/>
      <point x="543" y="446"/>
      <point x="478" y="446" type="curve" smooth="yes"/>
      <point x="410" y="446"/>
      <point x="384" y="494"/>
      <point x="387" y="590" type="curve" smooth="yes"/>
    </contour>
    <component base="period" xOffset="148"/>
  </outline>
</glyph>
<glyph name="at" format="2">
  <advance width="1777"/>
  <unicode hex="0040"/>
  <outline>
    <contour>
      <point x="803" y="450" type="curve" smooth="yes"/>
      <point x="834" y="606"/>
      <point x="913" y="775"/>
      <point x="985" y="775" type="curve" smooth="yes"/>
      <point x="1014" y="775"/>
      <point x="1035" y="738"/>
      <point x="1028" y="678" type="curve" smooth="yes"/>
      <point x="1001" y="483"/>
      <point x="900" y="330"/>
      <point x="834" y="330" type="curve" smooth="yes"/>
      <point x="808" y="330"/>
      <point x="787" y="362"/>
    </contour>
    <contour>
      <point x="1139" y="86" type="curve" smooth="yes"/>
      <point x="1421" y="86"/>
      <point x="1670" y="295"/>
      <point x="1741" y="577" type="curve" smooth="yes"/>
      <point x="1857" y="1049"/>
      <point x="1584" y="1322"/>
      <point x="1150" y="1322" type="curve" smooth="yes"/>
      <point x="662" y="1322"/>
      <point x="205" y="975"/>
      <point x="102" y="562" type="curve" smooth="yes"/>
      <point x="-33" y="18"/>
      <point x="249" y="-320"/>
      <point x="719" y="-320" type="curve" smooth="yes"/>
      <point x="1063" y="-320"/>
      <point x="1348" y="-209"/>
      <point x="1462" y="-105" type="curve" smooth="yes"/>
      <point x="1522" y="-52"/>
      <point x="1547" y="9"/>
      <point x="1521" y="46" type="curve" smooth="yes"/>
      <point x="1492" y="85"/>
      <point x="1425" y="60"/>
      <point x="1374" y="28" type="curve" smooth="yes"/>
      <point x="1176" y="-98"/>
      <point x="966" y="-148"/>
      <point x="764" y="-148" type="curve" smooth="yes"/>
      <point x="389" y="-148"/>
      <point x="182" y="137"/>
      <point x="288" y="562" type="curve" smooth="yes"/>
      <point x="379" y="930"/>
      <point x="717" y="1168"/>
      <point x="1098" y="1168" type="curve" smooth="yes"/>
      <point x="1437" y="1168"/>
      <point x="1641" y="939"/>
      <point x="1550" y="575" type="curve" smooth="yes"/>
      <point x="1508" y="408"/>
      <point x="1424" y="321"/>
      <point x="1338" y="321" type="curve" smooth="yes"/>
      <point x="1266" y="321"/>
      <point x="1258" y="375"/>
      <point x="1287" y="484" type="curve" smooth="yes"/>
      <point x="1332" y="658" type="line" smooth="yes"/>
      <point x="1350" y="726"/>
      <point x="1414" y="731"/>
      <point x="1425" y="812" type="curve" smooth="yes"/>
      <point x="1436" y="910"/>
      <point x="1352" y="969"/>
      <point x="1062" y="969" type="curve" smooth="yes"/>
      <point x="684" y="969"/>
      <point x="479" y="688"/>
      <point x="445" y="425" type="curve" smooth="yes"/>
      <point x="417" y="195"/>
      <point x="507" y="86"/>
      <point x="650" y="86" type="curve" smooth="yes"/>
      <point x="819" y="86"/>
      <point x="918" y="166"/>
      <point x="1009" y="339" type="curve"/>
      <point x="997" y="447" type="line"/>
      <point x="986" y="380"/>
      <point x="973" y="322"/>
      <point x="974" y="251" type="curve" smooth="yes"/>
      <point x="975" y="151"/>
      <point x="1042" y="86"/>
    </contour>
  </outline>
</glyph>
<glyph name="A" format="2">
  <advance width="1318"/>
  <unicode hex="0041"/>
  <outline>
    <contour>
      <point x="367" y="392" type="curve" smooth="yes"/>
      <point x="622" y="865" type="line" smooth="yes"/>
      <point x="729" y="1052"/>
      <point x="795" y="1111"/>
      <point x="861" y="1149" type="curve"/>
      <point x="749" y="1186" type="line"/>
      <point x="749" y="928"/>
      <point x="742" y="589"/>
      <point x="739" y="402" type="curve" smooth="yes"/>
      <point x="738" y="307"/>
      <point x="722" y="242"/>
      <point x="675" y="218" type="curve" smooth="yes"/>
      <point x="664" y="212" type="line" smooth="yes"/>
      <point x="607" y="183"/>
      <point x="578" y="150"/>
      <point x="578" y="94" type="curve" smooth="yes"/>
      <point x="578" y="43"/>
      <point x="599" y="0"/>
      <point x="671" y="0" type="curve" smooth="yes"/>
      <point x="1120" y="0" type="line" smooth="yes"/>
      <point x="1191" y="0"/>
      <point x="1234" y="44"/>
      <point x="1234" y="106" type="curve" smooth="yes"/>
      <point x="1234" y="145"/>
      <point x="1222" y="174"/>
      <point x="1195" y="201" type="curve" smooth="yes"/>
      <point x="1138" y="260"/>
      <point x="1145" y="300"/>
      <point x="1142" y="404" type="curve" smooth="yes"/>
      <point x="1139" y="509"/>
      <point x="1147" y="836"/>
      <point x="1147" y="1027" type="curve" smooth="yes"/>
      <point x="1147" y="1136"/>
      <point x="1181" y="1179"/>
      <point x="1232" y="1223" type="curve" smooth="yes"/>
      <point x="1267" y="1252"/>
      <point x="1279" y="1280"/>
      <point x="1279" y="1323" type="curve" smooth="yes"/>
      <point x="1279" y="1386"/>
      <point x="1235" y="1435"/>
      <point x="1108" y="1435" type="curve" smooth="yes"/>
      <point x="862" y="1435"/>
      <point x="641" y="1284"/>
      <point x="458" y="968" type="curve" smooth="yes"/>
      <point x="164" y="428" type="line" smooth="yes"/>
      <point x="116" y="345"/>
      <point x="73" y="260"/>
      <point x="37" y="235" type="curve" smooth="yes"/>
      <point x="-40" y="184"/>
      <point x="-55" y="145"/>
      <point x="-55" y="93" type="curve" smooth="yes"/>
      <point x="-55" y="36"/>
      <point x="-22" y="0"/>
      <point x="43" y="0" type="curve" smooth="yes"/>
      <point x="318" y="0" type="line" smooth="yes"/>
      <point x="385" y="0"/>
      <point x="430" y="41"/>
      <point x="430" y="110" type="curve" smooth="yes"/>
      <point x="430" y="139"/>
      <point x="417" y="169"/>
      <point x="380" y="195" type="curve" smooth="yes"/>
      <point x="352" y="214" type="line" smooth="yes"/>
      <point x="315" y="240"/>
      <point x="310" y="293"/>
    </contour>
    <contour>
      <point x="274" y="428" type="line"/>
      <point x="836" y="428" type="line"/>
      <point x="851" y="607" type="line"/>
      <point x="297" y="607" type="line"/>
    </contour>
  </outline>
</glyph>
<glyph name="G" format="2">
  <advance width="1412"/>
  <unicode hex="0047"/>
  <outline>
    <contour>
      <point x="827" y="1428" type="curve" smooth="yes"/>
      <point x="458" y="1428"/>
      <point x="137" y="1097"/>
      <point x="77" y="644" type="curve" smooth="yes"/>
      <point x="22" y="226"/>
      <point x="217" y="-30"/>
      <point x="559" y="-30" type="curve" smooth="yes"/>
      <point x="739" y="-30"/>
      <point x="821" y="48"/>
      <point x="882" y="48" type="curve" smooth="yes"/>
      <point x="953" y="48"/>
      <point x="992" y="-30"/>
      <point x="1072" y="-30" type="curve" smooth="yes"/>
      <point x="1137" y="-30"/>
      <point x="1171" y="9"/>
      <point x="1200" y="113" type="curve" smooth="yes"/>
      <point x="1288" y="449" type="line" smooth="yes"/>
      <point x="1300" y="492"/>
      <point x="1309" y="511"/>
      <point x="1337" y="526" type="curve" smooth="yes"/>
      <point x="1367" y="543" type="line" smooth="yes"/>
      <point x="1401" y="562"/>
      <point x="1436" y="597"/>
      <point x="1436" y="651" type="curve" smooth="yes"/>
      <point x="1436" y="704"/>
      <point x="1417" y="745"/>
      <point x="1338" y="745" type="curve" smooth="yes"/>
      <point x="883" y="745" type="line" smooth="yes"/>
      <point x="809" y="745"/>
      <point x="769" y="700"/>
      <point x="769" y="634" type="curve" smooth="yes"/>
      <point x="769" y="593"/>
      <point x="783" y="557"/>
      <point x="822" y="548" type="curve" smooth="yes"/>
      <point x="895" y="532" type="line" smooth="yes"/>
      <point x="923" y="526"/>
      <point x="924" y="495"/>
      <point x="916" y="454" type="curve" smooth="yes"/>
      <point x="894" y="340" type="line" smooth="yes"/>
      <point x="875" y="246"/>
      <point x="808" y="197"/>
      <point x="719" y="197" type="curve" smooth="yes"/>
      <point x="579" y="197"/>
      <point x="496" y="321"/>
      <point x="544" y="654" type="curve" smooth="yes"/>
      <point x="599" y="1028"/>
      <point x="757" y="1224"/>
      <point x="951" y="1224" type="curve" smooth="yes"/>
      <point x="1068" y="1224"/>
      <point x="1141" y="1179"/>
      <point x="1180" y="1066" type="curve" smooth="yes"/>
      <point x="1211" y="981" type="line" smooth="yes"/>
      <point x="1232" y="925"/>
      <point x="1272" y="899"/>
      <point x="1326" y="905" type="curve" smooth="yes"/>
      <point x="1373" y="910"/>
      <point x="1411" y="944"/>
      <point x="1407" y="1015" type="curve" smooth="yes"/>
      <point x="1390" y="1308" type="line" smooth="yes"/>
      <point x="1386" y="1392"/>
      <point x="1346" y="1436"/>
      <point x="1288" y="1436" type="curve" smooth="yes"/>
      <point x="1215" y="1436"/>
      <point x="1201" y="1372"/>
      <point x="1132" y="1372" type="curve" smooth="yes"/>
      <point x="1081" y="1372"/>
      <point x="1022" y="1428"/>
    </contour>
  </outline>
</glyph>
<glyph name="J" format="2">
  <advance width="795"/>
  <unicode hex="004A"/>
  <outline>
    <contour>
      <point x="748" y="1003" type="curve" smooth="yes"/>
      <point x="789" y="1152"/>
      <point x="792" y="1163"/>
      <point x="827" y="1181" type="curve" smooth="yes"/>
      <point x="856" y="1197" type="line" smooth="yes"/>
      <point x="892" y="1215"/>
      <point x="925" y="1252"/>
      <point x="925" y="1306" type="curve" smooth="yes"/>
      <point x="925" y="1360"/>
      <point x="906" y="1400"/>
      <point x="828" y="1400" type="curve" smooth="yes"/>
      <point x="373" y="1400" type="line" smooth="yes"/>
      <point x="297" y="1400"/>
      <point x="258" y="1354"/>
      <point x="258" y="1289" type="curve" smooth="yes"/>
      <point x="258" y="1249"/>
      <point x="276" y="1225"/>
      <point x="311" y="1204" type="curve" smooth="yes"/>
      <point x="338" y="1187" type="line" smooth="yes"/>
      <point x="370" y="1168"/>
      <point x="370" y="1150"/>
      <point x="349" y="1060" type="curve" smooth="yes"/>
      <point x="305" y="879"/>
      <point x="173" y="350"/>
      <point x="148" y="253" type="curve" smooth="yes"/>
      <point x="109" y="100"/>
      <point x="278" y="8"/>
      <point x="278" y="-79" type="curve" smooth="yes"/>
      <point x="278" y="-136"/>
      <point x="250" y="-167"/>
      <point x="198" y="-167" type="curve" smooth="yes"/>
      <point x="128" y="-167"/>
      <point x="29" y="-89"/>
      <point x="-48" y="-89" type="curve" smooth="yes"/>
      <point x="-147" y="-89"/>
      <point x="-207" y="-165"/>
      <point x="-207" y="-255" type="curve" smooth="yes"/>
      <point x="-207" y="-364"/>
      <point x="-131" y="-453"/>
      <point x="18" y="-453" type="curve" smooth="yes"/>
      <point x="261" y="-453"/>
      <point x="430" y="-293"/>
      <point x="498" y="-7" type="curve" smooth="yes"/>
      <point x="571" y="305"/>
      <point x="701" y="836"/>
    </contour>
  </outline>
</glyph>
<glyph name="R" format="2">
  <advance width="1433"/>
  <unicode hex="0052"/>
  <outline>
    <contour>
      <point x="411" y="572" type="line"/>
      <point x="505" y="515"/>
      <point x="612" y="484"/>
      <point x="768" y="488" type="curve" smooth="yes"/>
      <point x="1130" y="496"/>
      <point x="1387" y="650"/>
      <point x="1442" y="896" type="curve" smooth="yes"/>
      <point x="1513" y="1209"/>
      <point x="1308" y="1400"/>
      <point x="911" y="1400" type="curve" smooth="yes"/>
      <point x="366" y="1400" type="line" smooth="yes"/>
      <point x="294" y="1400"/>
      <point x="253" y="1355"/>
      <point x="253" y="1290" type="curve" smooth="yes"/>
      <point x="253" y="1247"/>
      <point x="273" y="1223"/>
      <point x="306" y="1204" type="curve" smooth="yes"/>
      <point x="330" y="1189" type="line" smooth="yes"/>
      <point x="370" y="1165"/>
      <point x="356" y="1144"/>
      <point x="341" y="1070" type="curve" smooth="yes"/>
      <point x="314" y="937"/>
      <point x="177" y="408"/>
      <point x="145" y="296" type="curve" smooth="yes"/>
      <point x="133" y="252"/>
      <point x="124" y="232"/>
      <point x="97" y="219" type="curve" smooth="yes"/>
      <point x="67" y="203" type="line" smooth="yes"/>
      <point x="32" y="185"/>
      <point x="-2" y="149"/>
      <point x="-2" y="94" type="curve" smooth="yes"/>
      <point x="-2" y="39"/>
      <point x="18" y="0"/>
      <point x="96" y="0" type="curve" smooth="yes"/>
      <point x="535" y="0" type="line" smooth="yes"/>
      <point x="609" y="0"/>
      <point x="646" y="43"/>
      <point x="646" y="108" type="curve" smooth="yes"/>
      <point x="646" y="154"/>
      <point x="623" y="178"/>
      <point x="590" y="204" type="curve" smooth="yes"/>
      <point x="569" y="222" type="line" smooth="yes"/>
      <point x="550" y="238"/>
      <point x="535" y="239"/>
      <point x="549" y="307" type="curve" smooth="yes"/>
      <point x="583" y="470"/>
      <point x="709" y="952"/>
      <point x="749" y="1094" type="curve" smooth="yes"/>
      <point x="770" y="1167"/>
      <point x="796" y="1217"/>
      <point x="879" y="1217" type="curve" smooth="yes"/>
      <point x="976" y="1217"/>
      <point x="1053" y="1140"/>
      <point x="1033" y="972" type="curve" smooth="yes"/>
      <point x="1013" y="802"/>
      <point x="914" y="656"/>
      <point x="748" y="656" type="curve" smooth="yes"/>
      <point x="661" y="656"/>
      <point x="598" y="674"/>
      <point x="550" y="711" type="curve"/>
    </contour>
    <contour>
      <point x="715" y="516" type="line"/>
      <point x="802" y="145" type="line" smooth="yes"/>
      <point x="832" y="17"/>
      <point x="893" y="-29"/>
      <point x="1009" y="-29" type="curve" smooth="yes"/>
      <point x="1176" y="-29"/>
      <point x="1327" y="72"/>
      <point x="1387" y="235" type="curve" smooth="yes"/>
      <point x="1410" y="300"/>
      <point x="1397" y="347"/>
      <point x="1357" y="363" type="curve" smooth="yes"/>
      <point x="1335" y="372"/>
      <point x="1307" y="361"/>
      <point x="1292" y="351" type="curve" smooth="yes"/>
      <point x="1267" y="334"/>
      <point x="1242" y="314"/>
      <point x="1216" y="314" type="curve" smooth="yes"/>
      <point x="1176" y="314"/>
      <point x="1154" y="355"/>
      <point x="1141" y="412" type="curve" smooth="yes"/>
      <point x="1100" y="591" type="line"/>
    </contour>
  </outline>
</glyph>
<glyph name="T" format="2">
  <advance width="1233"/>
  <unicode hex="0054"/>
  <outline>
    <contour>
      <point x="504" y="1433" type="curve" smooth="yes"/>
      <point x="272" y="1433"/>
      <point x="141" y="1287"/>
      <point x="138" y="1103" type="curve" smooth="yes"/>
      <point x="135" y="972"/>
      <point x="206" y="899"/>
      <point x="311" y="899" type="curve" smooth="yes"/>
      <point x="398" y="899"/>
      <point x="457" y="963"/>
      <point x="457" y="1040" type="curve" smooth="yes"/>
      <point x="457" y="1076"/>
      <point x="452" y="1094"/>
      <point x="453" y="1121" type="curve" smooth="yes"/>
      <point x="454" y="1197"/>
      <point x="484" y="1240"/>
      <point x="540" y="1240" type="curve" smooth="yes"/>
      <point x="672" y="1240"/>
      <point x="1038" y="1079"/>
      <point x="1194" y="1079" type="curve" smooth="yes"/>
      <point x="1363" y="1079"/>
      <point x="1463" y="1184"/>
      <point x="1466" y="1357" type="curve" smooth="yes"/>
      <point x="1467" y="1478"/>
      <point x="1407" y="1539"/>
      <point x="1328" y="1539" type="curve" smooth="yes"/>
      <point x="1222" y="1539"/>
      <point x="1181" y="1482"/>
      <point x="1168" y="1410" type="curve" smooth="yes"/>
      <point x="1165" y="1393"/>
      <point x="1163" y="1381"/>
      <point x="1159" y="1364" type="curve" smooth="yes"/>
      <point x="1148" y="1329"/>
      <point x="1129" y="1312"/>
      <point x="1095" y="1312" type="curve" smooth="yes"/>
      <point x="962" y="1312"/>
      <point x="746" y="1433"/>
    </contour>
    <contour>
      <point x="795" y="301" type="curve" smooth="yes"/>
      <point x="836" y="449"/>
      <point x="981" y="1034"/>
      <point x="1048" y="1246" type="curve"/>
      <point x="653" y="1318" type="line"/>
      <point x="602" y="1126"/>
      <point x="443" y="534"/>
      <point x="384" y="338" type="curve" smooth="yes"/>
      <point x="361" y="267"/>
      <point x="343" y="230"/>
      <point x="329" y="222" type="curve" smooth="yes"/>
      <point x="295" y="202" type="line" smooth="yes"/>
      <point x="253" y="179"/>
      <point x="225" y="145"/>
      <point x="225" y="90" type="curve" smooth="yes"/>
      <point x="225" y="37"/>
      <point x="253" y="0"/>
      <point x="323" y="0" type="curve" smooth="yes"/>
      <point x="777" y="0" type="line" smooth="yes"/>
      <point x="843" y="0"/>
      <point x="892" y="35"/>
      <point x="892" y="106" type="curve" smooth="yes"/>
      <point x="892" y="144"/>
      <point x="877" y="170"/>
      <point x="839" y="194" type="curve" smooth="yes"/>
      <point x="804" y="217" type="line" smooth="yes"/>
      <point x="789" y="227"/>
      <point x="780" y="249"/>
    </contour>
  </outline>
</glyph>
<glyph name="asciicircum" format="2">
  <advance width="936"/>
  <unicode hex="005E"/>
  <outline>
    <contour>
      <point x="739" y="1184" type="line"/>
      <point x="409" y="810" type="line" smooth="yes"/>
      <point x="324" y="719"/>
      <point x="241" y="683"/>
      <point x="183" y="683" type="curve" smooth="yes"/>
      <point x="102" y="683"/>
      <point x="115" y="784"/>
      <point x="203" y="896" type="curve" smooth="yes"/>
      <point x="484" y="1277" type="line" smooth="yes"/>
      <point x="590" y="1412"/>
      <point x="647" y="1439"/>
      <point x="723" y="1439" type="curve" smooth="yes"/>
      <point x="800" y="1439"/>
      <point x="842" y="1412"/>
      <point x="879" y="1277" type="curve" smooth="yes"/>
      <point x="975" y="896" type="line" smooth="yes"/>
      <point x="1007" y="775"/>
      <point x="968" y="683"/>
      <point x="884" y="683" type="curve" smooth="yes"/>
      <point x="827" y="683"/>
      <point x="786" y="719"/>
      <point x="748" y="810" type="curve" smooth="yes"/>
      <point x="600" y="1184" type="line"/>
    </contour>
  </outline>
</glyph>
<glyph name="d" format="2">
  <advance width="1073"/>
  <unicode hex="0064"/>
  <outline>
    <contour>
      <point x="934" y="635" type="line"/>
      <point x="942.5135707676277" y="786.1158811253914"/>
      <point x="846.0" y="916.0"/>
      <point x="657" y="916" type="curve" smooth="yes"/>
      <point x="252.0" y="916.0"/>
      <point x="12.0" y="539.4162826420891"/>
      <point x="12" y="248" type="curve" smooth="yes"/>
      <point x="12" y="67"/>
      <point x="102" y="-20"/>
      <point x="261" y="-20" type="curve" smooth="yes"/>
      <point x="411" y="-20"/>
      <point x="530" y="55"/>
      <point x="610" y="246" type="curve"/>
      <point x="589" y="359" type="line"/>
      <point x="579" y="292"/>
      <point x="575" y="230"/>
      <point x="575" y="156" type="curve" smooth="yes"/>
      <point x="575" y="47"/>
      <point x="637" y="-20"/>
      <point x="775" y="-20" type="curve" smooth="yes"/>
      <point x="896" y="-20"/>
      <point x="1014" y="62"/>
      <point x="1057" y="196" type="curve" smooth="yes"/>
      <point x="1086" y="286"/>
      <point x="1069" y="324"/>
      <point x="1028" y="324" type="curve" smooth="yes"/>
      <point x="1019" y="324"/>
      <point x="1010" y="321"/>
      <point x="999" y="314" type="curve" smooth="yes"/>
      <point x="985" y="305"/>
      <point x="976" y="300"/>
      <point x="963" y="300" type="curve" smooth="yes"/>
      <point x="933" y="300"/>
      <point x="923" y="335"/>
      <point x="941" y="398" type="curve" smooth="yes"/>
      <point x="1042" y="757" type="line" smooth="yes"/>
      <point x="1084" y="907"/>
      <point x="964" y="1019"/>
      <point x="963" y="1105" type="curve" smooth="yes"/>
      <point x="962" y="1145"/>
      <point x="983" y="1173"/>
      <point x="1021" y="1173" type="curve" smooth="yes"/>
      <point x="1077" y="1173"/>
      <point x="1141" y="1128"/>
      <point x="1209" y="1128" type="curve" smooth="yes"/>
      <point x="1299" y="1128"/>
      <point x="1356" y="1186"/>
      <point x="1356" y="1296" type="curve" smooth="yes"/>
      <point x="1356" y="1387"/>
      <point x="1288" y="1470"/>
      <point x="1157" y="1470" type="curve" smooth="yes"/>
      <point x="994" y="1470"/>
      <point x="853" y="1362"/>
      <point x="790" y="1136" type="curve" smooth="yes"/>
      <point x="617" y="518" type="line" smooth="yes"/>
      <point x="574" y="366"/>
      <point x="492" y="236"/>
      <point x="428" y="236" type="curve" smooth="yes"/>
      <point x="408" y="236"/>
      <point x="390" y="255"/>
      <point x="390" y="305" type="curve" smooth="yes"/>
      <point x="390.0" y="473.16953316953317"/>
      <point x="486.0" y="710.0"/>
      <point x="594" y="710" type="curve" smooth="yes"/>
      <point x="634.0" y="710.0"/>
      <point x="650.934914548429" y="685.5464249149143"/>
      <point x="648" y="620" type="curve"/>
    </contour>
  </outline>
</glyph>
<glyph name="p" format="2">
  <advance width="1048"/>
  <unicode hex="0070"/>
  <outline>
    <contour>
      <point x="578" y="800" type="line" smooth="yes"/>
      <point x="618" y="965"/>
      <point x="591" y="1053"/>
      <point x="473" y="1053" type="curve" smooth="yes"/>
      <point x="361" y="1053"/>
      <point x="278" y="972"/>
      <point x="243" y="835" type="curve" smooth="yes"/>
      <point x="-16" y="-183" type="line" smooth="yes"/>
      <point x="-25" y="-220"/>
      <point x="-40" y="-243"/>
      <point x="-81" y="-270" type="curve" smooth="yes"/>
      <point x="-135" y="-306"/>
      <point x="-158" y="-336"/>
      <point x="-158" y="-378" type="curve" smooth="yes"/>
      <point x="-158" y="-434"/>
      <point x="-125" y="-469"/>
      <point x="-71" y="-468" type="curve" smooth="yes"/>
      <point x="386" y="-460" type="line" smooth="yes"/>
      <point x="452" y="-459"/>
      <point x="499" y="-416"/>
      <point x="499" y="-352" type="curve" smooth="yes"/>
      <point x="499" y="-314"/>
      <point x="478" y="-288"/>
      <point x="430" y="-274" type="curve" smooth="yes"/>
      <point x="386" y="-261" type="line" smooth="yes"/>
      <point x="345" y="-249"/>
      <point x="330" y="-214"/>
      <point x="343" y="-159" type="curve" smooth="yes"/>
    </contour>
    <contour>
      <point x="147" y="563" type="curve" smooth="yes"/>
      <point x="279" y="668"/>
      <point x="414" y="704"/>
      <point x="515" y="704" type="curve" smooth="yes"/>
      <point x="610" y="704"/>
      <point x="671" y="628"/>
      <point x="642" y="431" type="curve" smooth="yes"/>
      <point x="616" y="250"/>
      <point x="562" y="183"/>
      <point x="500" y="184" type="curve" smooth="yes"/>
      <point x="448" y="185"/>
      <point x="416" y="216"/>
      <point x="398" y="265" type="curve"/>
      <point x="273" y="206" type="line"/>
      <point x="285" y="84"/>
      <point x="402" y="-21"/>
      <point x="593" y="-20" type="curve" smooth="yes"/>
      <point x="814" y="-20"/>
      <point x="980" y="136"/>
      <point x="1015" y="426" type="curve" smooth="yes"/>
      <point x="1054" y="745"/>
      <point x="887" y="916"/>
      <point x="620" y="916" type="curve" smooth="yes"/>
      <point x="400" y="915"/>
      <point x="191" y="843"/>
      <point x="79" y="734" type="curve" smooth="yes"/>
      <point x="18" y="675"/>
      <point x="-9" y="599"/>
      <point x="26" y="558" type="curve" smooth="yes"/>
      <point x="53" y="527"/>
      <point x="102" y="527"/>
    </contour>
  </outline>
</glyph>
<glyph name="braceleft" format="2">
  <advance width="808"/>
  <unicode hex="007B"/>
  <outline>
    <contour>
      <point x="479" y="563" type="curve" smooth="yes"/>
      <point x="484" y="581"/>
      <point x="498" y="594"/>
      <point x="524" y="594" type="curve" smooth="yes"/>
      <point x="631" y="594"/>
      <point x="714" y="639"/>
      <point x="738" y="736" type="curve" smooth="yes"/>
      <point x="768" y="854"/>
      <point x="655" y="965"/>
      <point x="682" y="1076" type="curve" smooth="yes"/>
      <point x="700" y="1151"/>
      <point x="740" y="1187"/>
      <point x="813" y="1187" type="curve" smooth="yes"/>
      <point x="853" y="1187" type="line" smooth="yes"/>
      <point x="916" y="1187"/>
      <point x="951" y="1217"/>
      <point x="966" y="1274" type="curve" smooth="yes"/>
      <point x="978" y="1323"/>
      <point x="960" y="1361"/>
      <point x="896" y="1361" type="curve" smooth="yes"/>
      <point x="813" y="1361" type="line" smooth="yes"/>
      <point x="564" y="1361"/>
      <point x="421" y="1256"/>
      <point x="383" y="1104" type="curve" smooth="yes"/>
      <point x="329" y="886"/>
      <point x="501" y="789"/>
      <point x="478" y="696" type="curve" smooth="yes"/>
      <point x="469" y="660"/>
      <point x="449" y="644"/>
      <point x="415" y="644" type="curve" smooth="yes"/>
      <point x="341" y="644"/>
      <point x="335" y="684"/>
      <point x="281" y="684" type="curve" smooth="yes"/>
      <point x="217" y="684"/>
      <point x="163" y="627"/>
      <point x="147" y="563" type="curve" smooth="yes"/>
      <point x="131" y="499"/>
      <point x="156" y="442"/>
      <point x="219" y="442" type="curve" smooth="yes"/>
      <point x="274" y="442"/>
      <point x="302" y="482"/>
      <point x="375" y="482" type="curve" smooth="yes"/>
      <point x="409" y="482"/>
      <point x="421" y="466"/>
      <point x="412" y="430" type="curve" smooth="yes"/>
      <point x="389" y="336"/>
      <point x="170" y="239"/>
      <point x="116" y="21" type="curve" smooth="yes"/>
      <point x="78" y="-131"/>
      <point x="169" y="-236"/>
      <point x="417" y="-236" type="curve" smooth="yes"/>
      <point x="501" y="-236" type="line" smooth="yes"/>
      <point x="564" y="-236"/>
      <point x="602" y="-197"/>
      <point x="614" y="-149" type="curve" smooth="yes"/>
      <point x="628" y="-92"/>
      <point x="609" y="-62"/>
      <point x="545" y="-62" type="curve" smooth="yes"/>
      <point x="506" y="-62" type="line" smooth="yes"/>
      <point x="433" y="-62"/>
      <point x="411" y="-25"/>
      <point x="429" y="50" type="curve" smooth="yes"/>
      <point x="456" y="160"/>
      <point x="623" y="271"/>
      <point x="652" y="390" type="curve" smooth="yes"/>
      <point x="677" y="487"/>
      <point x="615" y="531"/>
      <point x="508" y="531" type="curve" smooth="yes"/>
      <point x="483" y="531"/>
      <point x="475" y="545"/>
    </contour>
  </outline>
</glyph>
<glyph name="logicalnot" format="2">
  <advance width="1104"/>
  <unicode hex="00AC"/>
  <outline>
    <contour>
      <point x="142" y="744" type="curve" smooth="yes"/>
      <point x="123" y="668"/>
      <point x="161" y="624"/>
      <point x="217" y="624" type="curve" smooth="yes"/>
      <point x="831" y="624" type="line"/>
      <point x="802" y="663" type="line"/>
      <point x="735" y="391" type="line" smooth="yes"/>
      <point x="718" y="326"/>
      <point x="753" y="269"/>
      <point x="835" y="269" type="curve" smooth="yes"/>
      <point x="908" y="269"/>
      <point x="964" y="321"/>
      <point x="979" y="380" type="curve" smooth="yes"/>
      <point x="1068" y="728" type="line" smooth="yes"/>
      <point x="1091" y="820"/>
      <point x="1048" y="868"/>
      <point x="970" y="868" type="curve" smooth="yes"/>
      <point x="282" y="868" type="line" smooth="yes"/>
      <point x="224" y="868"/>
      <point x="162" y="821"/>
    </contour>
  </outline>
</glyph>
<glyph name="mu.math" format="2">
  <advance width="1147"/>
  <unicode hex="00B5"/>
  <outline>
    <contour>
      <point x="82" y="292" type="line"/>
      <point x="23" y="52"/>
      <point x="-150" y="-124"/>
      <point x="-175" y="-231" type="curve" smooth="yes"/>
      <point x="-208" y="-362"/>
      <point x="-161" y="-452"/>
      <point x="-54" y="-452" type="curve" smooth="yes"/>
      <point x="33" y="-452"/>
      <point x="124" y="-384"/>
      <point x="148" y="-288" type="curve" smooth="yes"/>
      <point x="185" y="-134"/>
      <point x="53" y="-37"/>
      <point x="124" y="253" type="curve"/>
    </contour>
    <contour>
      <point x="149" y="475" type="curve" smooth="yes"/>
      <point x="88" y="313" type="line" smooth="yes"/>
      <point x="17" y="128"/>
      <point x="33" y="-28"/>
      <point x="205" y="-28" type="curve" smooth="yes"/>
      <point x="387" y="-28"/>
      <point x="562" y="88"/>
      <point x="724" y="435" type="curve"/>
      <point x="683" y="446" type="line"/>
      <point x="685" y="328"/>
      <point x="567" y="190"/>
      <point x="567" y="95" type="curve" smooth="yes"/>
      <point x="567" y="15"/>
      <point x="626" y="-28"/>
      <point x="728" y="-28" type="curve" smooth="yes"/>
      <point x="864" y="-28"/>
      <point x="1003" y="48"/>
      <point x="1075" y="163" type="curve" smooth="yes"/>
      <point x="1111" y="219"/>
      <point x="1108" y="270"/>
      <point x="1079" y="293" type="curve" smooth="yes"/>
      <point x="1063" y="305"/>
      <point x="1039" y="308"/>
      <point x="1007" y="292" type="curve" smooth="yes"/>
      <point x="987" y="281"/>
      <point x="975" y="273"/>
      <point x="961" y="273" type="curve" smooth="yes"/>
      <point x="926" y="273"/>
      <point x="919" y="301"/>
      <point x="959" y="390" type="curve" smooth="yes"/>
      <point x="1050" y="601" type="line" smooth="yes"/>
      <point x="1122" y="765"/>
      <point x="1082" y="894"/>
      <point x="948" y="894" type="curve" smooth="yes"/>
      <point x="764" y="894"/>
      <point x="656" y="830"/>
      <point x="656" y="730" type="curve" smooth="yes"/>
      <point x="656" y="676"/>
      <point x="677" y="638"/>
      <point x="677" y="592" type="curve" smooth="yes"/>
      <point x="677" y="555"/>
      <point x="661" y="514"/>
      <point x="631" y="427" type="curve" smooth="yes"/>
      <point x="601" y="333"/>
      <point x="553" y="281"/>
      <point x="495" y="281" type="curve" smooth="yes"/>
      <point x="444" y="281"/>
      <point x="445" y="328"/>
      <point x="465" y="392" type="curve" smooth="yes"/>
      <point x="534" y="601" type="line" smooth="yes"/>
      <point x="592" y="771"/>
      <point x="566" y="894"/>
      <point x="432" y="894" type="curve" smooth="yes"/>
      <point x="248" y="894"/>
      <point x="140" y="830"/>
      <point x="140" y="730" type="curve" smooth="yes"/>
      <point x="140" y="676"/>
      <point x="172" y="638"/>
      <point x="172" y="592" type="curve" smooth="yes"/>
      <point x="172" y="554"/>
      <point x="165" y="517"/>
    </contour>
  </outline>
</glyph>
<glyph name="onesuperior" format="2">
  <advance width="564"/>
  <unicode hex="00B9"/>
  <outline>
    <contour>
      <point x="284" y="1243" type="line" smooth="yes"/>
      <point x="236" y="1243"/>
      <point x="221" y="1271"/>
      <point x="231" y="1311" type="curve" smooth="yes"/>
      <point x="242" y="1351"/>
      <point x="278" y="1380"/>
      <point x="326" y="1380" type="curve" smooth="yes"/>
      <point x="361" y="1380" type="line" smooth="yes"/>
      <point x="440" y="1380"/>
      <point x="490" y="1402"/>
      <point x="548" y="1423" type="curve" smooth="yes"/>
      <point x="581" y="1435"/>
      <point x="602" y="1439"/>
      <point x="622" y="1439" type="curve" smooth="yes"/>
      <point x="666" y="1439"/>
      <point x="685" y="1418"/>
      <point x="674" y="1373" type="curve" smooth="yes"/>
      <point x="545" y="852" type="line" smooth="yes"/>
      <point x="537" y="824"/>
      <point x="544" y="812"/>
      <point x="558" y="805" type="curve" smooth="yes"/>
      <point x="597" y="791" type="line" smooth="yes"/>
      <point x="628" y="781"/>
      <point x="642" y="760"/>
      <point x="634" y="728" type="curve" smooth="yes"/>
      <point x="624" y="691"/>
      <point x="596" y="668"/>
      <point x="546" y="668" type="curve" smooth="yes"/>
      <point x="136" y="668" type="line" smooth="yes"/>
      <point x="85" y="668"/>
      <point x="68" y="691"/>
      <point x="78" y="728" type="curve" smooth="yes"/>
      <point x="85" y="760"/>
      <point x="111" y="783"/>
      <point x="148" y="791" type="curve" smooth="yes"/>
      <point x="204" y="805" type="line" smooth="yes"/>
      <point x="223" y="810"/>
      <point x="235" y="824"/>
      <point x="243" y="852" type="curve" smooth="yes"/>
      <point x="323" y="1181" type="line" smooth="yes"/>
      <point x="336" y="1231"/>
      <point x="326" y="1243"/>
      <point x="294" y="1243" type="curve" smooth="yes"/>
    </contour>
  </outline>
</glyph>
<glyph name="oslash" format="2">
  <advance width="1074"/>
  <unicode hex="00F8"/>
  <outline>
    <contour>
      <point x="96" y="-119" type="curve" smooth="yes"/>
      <point x="122" y="-135"/>
      <point x="150" y="-125"/>
      <point x="175" y="-94" type="curve" smooth="yes"/>
      <point x="387" y="179" type="line"/>
      <point x="388" y="206" type="line"/>
      <point x="734" y="661" type="line"/>
      <point x="751" y="661" type="line"/>
      <point x="974" y="949" type="line" smooth="yes"/>
      <point x="995" y="977"/>
      <point x="990" y="1006"/>
      <point x="966" y="1021" type="curve" smooth="yes"/>
      <point x="939" y="1037"/>
      <point x="910" y="1026"/>
      <point x="887" y="997" type="curve" smooth="yes"/>
      <point x="722" y="784" type="line"/>
      <point x="718" y="754" type="line"/>
      <point x="353" y="273" type="line"/>
      <point x="335" y="273" type="line"/>
      <point x="92" y="-42" type="line" smooth="yes"/>
      <point x="68" y="-73"/>
      <point x="71" y="-107"/>
    </contour>
    <component base="o"/>
  </outline>
</glyph>
<glyph name="lslash" format="2">
  <advance width="683"/>
  <unicode hex="0142"/>
  <outline>
    <contour>
      <point x="-46" y="420" type="curve" smooth="yes"/>
      <point x="-32" y="393"/>
      <point x="-5" y="389"/>
      <point x="30" y="415" type="curve" smooth="yes"/>
      <point x="205" y="545" type="line"/>
      <point x="491" y="613" type="line"/>
      <point x="717" y="781" type="line" smooth="yes"/>
      <point x="748" y="806"/>
      <point x="762" y="837"/>
      <point x="749" y="867" type="curve" smooth="yes"/>
      <point x="734" y="891"/>
      <point x="700" y="891"/>
      <point x="669" y="869" type="curve" smooth="yes"/>
      <point x="529" y="763" type="line"/>
      <point x="241" y="694" type="line"/>
      <point x="-15" y="504" type="line" smooth="yes"/>
      <point x="-45" y="483"/>
      <point x="-59" y="446"/>
    </contour>
    <component base="l"/>
  </outline>
</glyph>
<glyph name="eng" format="2">
  <advance width="1078"/>
  <unicode hex="014B"/>
  <outline>
    <contour>
      <point x="859" y="-83" type="curve" smooth="yes"/>
      <point x="1039" y="586" type="line" smooth="yes"/>
      <point x="1087" y="765"/>
      <point x="1030" y="894"/>
      <point x="898" y="894" type="curve" smooth="yes"/>
      <point x="728" y="894"/>
      <point x="575" y="773"/>
      <point x="414" y="431" type="curve"/>
      <point x="456" y="420" type="line"/>
      <point x="453" y="538"/>
      <point x="570" y="676"/>
      <point x="570" y="771" type="curve" smooth="yes"/>
      <point x="570" y="851"/>
      <point x="513" y="894"/>
      <point x="409" y="894" type="curve" smooth="yes"/>
      <point x="275" y="894"/>
      <point x="135" y="818"/>
      <point x="63" y="703" type="curve" smooth="yes"/>
      <point x="27" y="647"/>
      <point x="30" y="595"/>
      <point x="59" y="573" type="curve" smooth="yes"/>
      <point x="76" y="561"/>
      <point x="99" y="558"/>
      <point x="130" y="575" type="curve" smooth="yes"/>
      <point x="151" y="585"/>
      <point x="163" y="592"/>
      <point x="178" y="592" type="curve" smooth="yes"/>
      <point x="212" y="592"/>
      <point x="219" y="565"/>
      <point x="179" y="476" type="curve" smooth="yes"/>
      <point x="88" y="265" type="line" smooth="yes"/>
      <point x="16" y="102"/>
      <point x="56" y="-28"/>
      <point x="190" y="-28" type="curve" smooth="yes"/>
      <point x="374" y="-28"/>
      <point x="482" y="36"/>
      <point x="482" y="135" type="curve" smooth="yes"/>
      <point x="482" y="190"/>
      <point x="462" y="228"/>
      <point x="462" y="273" type="curve" smooth="yes"/>
      <point x="462" y="312"/>
      <point x="477" y="351"/>
      <point x="507" y="439" type="curve" smooth="yes"/>
      <point x="537" y="533"/>
      <point x="585" y="585"/>
      <point x="643" y="585" type="curve" smooth="yes"/>
      <point x="694" y="585"/>
      <point x="692" y="537"/>
      <point x="673" y="474" type="curve" smooth="yes"/>
      <point x="594" y="208" type="line" smooth="yes"/>
      <point x="545" y="52"/>
      <point x="664" y="-29"/>
      <point x="664" y="-79" type="curve" smooth="yes"/>
      <point x="665" y="-117"/>
      <point x="643" y="-147"/>
      <point x="604" y="-147" type="curve" smooth="yes"/>
      <point x="541" y="-147"/>
      <point x="503" y="-93"/>
      <point x="426" y="-93" type="curve" smooth="yes"/>
      <point x="323" y="-93"/>
      <point x="261" y="-159"/>
      <point x="261" y="-259" type="curve" smooth="yes"/>
      <point x="261" y="-369"/>
      <point x="337" y="-440"/>
      <point x="473" y="-440" type="curve" smooth="yes"/>
      <point x="682" y="-440"/>
      <point x="801" y="-296"/>
    </contour>
  </outline>
</glyph>
<glyph name="tbar" format="2">
  <advance width="785"/>
  <unicode hex="0167"/>
  <outline>
    <contour>
      <point x="9" y="495" type="curve" smooth="yes"/>
      <point x="-2" y="454"/>
      <point x="7" y="428"/>
      <point x="36" y="428" type="curve" smooth="yes"/>
      <point x="711" y="428" type="line" smooth="yes"/>
      <point x="741" y="428"/>
      <point x="768" y="454"/>
      <point x="779" y="495" type="curve" smooth="yes"/>
      <point x="789" y="534"/>
      <point x="776" y="563"/>
      <point x="746" y="563" type="curve" smooth="yes"/>
      <point x="73" y="563" type="line" smooth="yes"/>
      <point x="47" y="563"/>
      <point x="19" y="534"/>
    </contour>
    <contour>
      <point x="151" y="658" type="line" smooth="yes"/>
      <point x="194" y="627"/>
      <point x="193" y="589"/>
      <point x="162" y="500" type="curve" smooth="yes"/>
      <point x="123" y="381" type="line" smooth="yes"/>
      <point x="24" y="99"/>
      <point x="107" y="-24"/>
      <point x="275" y="-24" type="curve" smooth="yes"/>
      <point x="522" y="-24"/>
      <point x="703" y="150"/>
      <point x="703" y="263" type="curve" smooth="yes"/>
      <point x="703" y="300"/>
      <point x="685" y="325"/>
      <point x="654" y="325" type="curve" smooth="yes"/>
      <point x="631" y="325"/>
      <point x="618" y="317"/>
      <point x="587" y="291" type="curve" smooth="yes"/>
      <point x="553" y="261"/>
      <point x="537" y="248"/>
      <point x="507" y="248" type="curve" smooth="yes"/>
      <point x="458" y="248"/>
      <point x="440" y="280"/>
      <point x="473" y="397" type="curve" smooth="yes"/>
      <point x="598" y="846" type="line" smooth="yes"/>
      <point x="615" y="906"/>
      <point x="621" y="959"/>
      <point x="621" y="994" type="curve" smooth="yes"/>
      <point x="621" y="1039"/>
      <point x="590" y="1074"/>
      <point x="534" y="1074" type="curve" smooth="yes"/>
      <point x="477" y="1074"/>
      <point x="445" y="1041"/>
      <point x="419" y="1014" type="curve" smooth="yes"/>
      <point x="354" y="943" type="line" smooth="yes"/>
      <point x="299" y="885"/>
      <point x="265" y="868"/>
      <point x="203" y="868" type="curve" smooth="yes"/>
      <point x="192" y="868" type="line" smooth="yes"/>
      <point x="121" y="868"/>
      <point x="77" y="830"/>
      <point x="77" y="770" type="curve" smooth="yes"/>
      <point x="77" y="729"/>
      <point x="95" y="700"/>
      <point x="129" y="676" type="curve" smooth="yes"/>
    </contour>
    <contour>
      <point x="485" y="651" type="line"/>
      <point x="649" y="651" type="line" smooth="yes"/>
      <point x="748" y="651"/>
      <point x="812" y="708"/>
      <point x="812" y="797" type="curve" smooth="yes"/>
      <point x="812" y="842"/>
      <point x="792" y="866"/>
      <point x="751" y="866" type="curve" smooth="yes"/>
      <point x="550" y="866" type="line"/>
    </contour>
  </outline>
</glyph>
<glyph name="Uhorn" format="2">
  <advance width="1398"/>
  <unicode hex="01AF"/>
  <outline>
    <contour>
      <point x="1843" y="1593" type="curve" smooth="yes"/>
      <point x="1861" y="1701"/>
      <point x="1825" y="1784"/>
      <point x="1747" y="1790" type="curve" smooth="yes"/>
      <point x="1659" y="1797"/>
      <point x="1616" y="1734"/>
      <point x="1601" y="1640" type="curve" smooth="yes"/>
      <point x="1581" y="1512" type="line" smooth="yes"/>
      <point x="1570" y="1436"/>
      <point x="1520" y="1397"/>
      <point x="1412" y="1397" type="curve"/>
      <point x="1389" y="1239" type="line"/>
      <point x="1652" y="1239"/>
      <point x="1806" y="1362"/>
    </contour>
    <contour>
      <point x="1007" y="477" type="line" smooth="yes"/>
      <point x="948" y="263"/>
      <point x="858" y="198"/>
      <point x="745" y="198" type="curve" smooth="yes"/>
      <point x="643" y="198"/>
      <point x="582" y="262"/>
      <point x="584" y="387" type="curve" smooth="yes"/>
      <point x="585" y="448"/>
      <point x="598" y="517"/>
      <point x="632" y="644" type="curve" smooth="yes"/>
      <point x="732" y="1035" type="line" smooth="yes"/>
      <point x="755" y="1119"/>
      <point x="767" y="1165"/>
      <point x="811" y="1186" type="curve" smooth="yes"/>
      <point x="828" y="1194" type="line" smooth="yes"/>
      <point x="872" y="1214"/>
      <point x="896" y="1269"/>
      <point x="897" y="1316" type="curve" smooth="yes"/>
      <point x="898" y="1372"/>
      <point x="867" y="1401"/>
      <point x="803" y="1401" type="curve" smooth="yes"/>
      <point x="303" y="1401" type="line" smooth="yes"/>
      <point x="253" y="1401"/>
      <point x="221" y="1359"/>
      <point x="220" y="1310" type="curve" smooth="yes"/>
      <point x="219" y="1262"/>
      <point x="233" y="1243"/>
      <point x="274" y="1206" type="curve" smooth="yes"/>
      <point x="287" y="1194" type="line" smooth="yes"/>
      <point x="310" y="1174"/>
      <point x="315" y="1099"/>
      <point x="296" y="1026" type="curve" smooth="yes"/>
      <point x="200" y="644" type="line" smooth="yes"/>
      <point x="178" y="557"/>
      <point x="141" y="431"/>
      <point x="139" y="332" type="curve" smooth="yes"/>
      <point x="137" y="140"/>
      <point x="276" y="-29"/>
      <point x="573" y="-29" type="curve" smooth="yes"/>
      <point x="900" y="-29"/>
      <point x="1118" y="112"/>
      <point x="1212" y="459" type="curve" smooth="yes"/>
      <point x="1365" y="1044" type="line" smooth="yes"/>
      <point x="1406" y="1193"/>
      <point x="1438" y="1233"/>
      <point x="1495" y="1246" type="curve" smooth="yes"/>
      <point x="1513" y="1250" type="line" smooth="yes"/>
      <point x="1545" y="1256"/>
      <point x="1564" y="1295"/>
      <point x="1564" y="1349" type="curve" smooth="yes"/>
      <point x="1564" y="1379"/>
      <point x="1535" y="1401"/>
      <point x="1474" y="1401" type="curve" smooth="yes"/>
      <point x="1146" y="1401" type="line" smooth="yes"/>
      <point x="1075" y="1401"/>
      <point x="1039" y="1356"/>
      <point x="1038" y="1302" type="curve" smooth="yes"/>
      <point x="1037" y="1252"/>
      <point x="1054" y="1226"/>
      <point x="1114" y="1189" type="curve" smooth="yes"/>
      <point x="1130" y="1179" type="line" smooth="yes"/>
      <point x="1184" y="1146"/>
      <point x="1173" y="1093"/>
      <point x="1149" y="1010" type="curve" smooth="yes"/>
    </contour>
  </outline>
</glyph>
<glyph name="uhorn" format="2">
  <advance width="1144"/>
  <unicode hex="01B0"/>
  <outline>
    <contour>
      <point x="1284" y="1072" type="curve" smooth="yes"/>
      <point x="1300" y="1177"/>
      <point x="1267" y="1258"/>
      <point x="1193" y="1264" type="curve" smooth="yes"/>
      <point x="1108" y="1271"/>
      <point x="1068" y="1210"/>
      <point x="1055" y="1119" type="curve" smooth="yes"/>
      <point x="1035" y="995" type="line" smooth="yes"/>
      <point x="1026" y="926"/>
      <point x="991" y="900"/>
      <point x="910" y="892" type="curve" smooth="yes"/>
      <point x="889" y="891"/>
      <point x="872" y="878"/>
      <point x="872" y="861" type="curve" smooth="yes"/>
      <point x="872" y="843"/>
      <point x="880" y="833"/>
      <point x="888" y="833" type="curve" smooth="yes"/>
      <point x="1132" y="842"/>
      <point x="1261" y="925"/>
    </contour>
    <component base="u"/>
  </outline>
</glyph>
<glyph name="Oogonek" format="2">
  <advance width="1459"/>
  <unicode hex="01EA"/>
  <outline>
    <contour>
      <point x="833" y="55" type="line"/>
      <point x="531" y="-9"/>
      <point x="390" y="-117"/>
      <point x="354" y="-261" type="curve" smooth="yes"/>
      <point x="319" y="-398"/>
      <point x="385" y="-486"/>
      <point x="536" y="-486" type="curve" smooth="yes"/>
      <point x="671" y="-486"/>
      <point x="787" y="-418"/>
      <point x="845" y="-334" type="curve" smooth="yes"/>
      <point x="886" y="-278"/>
      <point x="870" y="-241"/>
      <point x="845" y="-233" type="curve" smooth="yes"/>
      <point x="823" y="-224"/>
      <point x="802" y="-237"/>
      <point x="774" y="-258" type="curve" smooth="yes"/>
      <point x="744" y="-283"/>
      <point x="722" y="-294"/>
      <point x="696" y="-294" type="curve" smooth="yes"/>
      <point x="654" y="-294"/>
      <point x="629" y="-261"/>
      <point x="644" y="-204" type="curve" smooth="yes"/>
      <point x="662" y="-132"/>
      <point x="712" y="-52"/>
      <point x="848" y="2" type="curve"/>
    </contour>
    <component base="O" xOffset="-15"/>
  </outline>
</glyph>
<glyph name="emdash" format="2">
  <advance width="1584"/>
  <unicode hex="2014"/>
  <outline>
    <contour>
      <point x="55" y="507" type="curve" smooth="yes"/>
      <point x="37" y="435"/>
      <point x="49" y="387"/>
      <point x="106" y="387" type="curve" smooth="yes"/>
      <point x="1440" y="387" type="line" smooth="yes"/>
      <point x="1497" y="387"/>
      <point x="1534" y="435"/>
      <point x="1552" y="507" type="curve" smooth="yes"/>
      <point x="1571" y="579"/>
      <point x="1558" y="627"/>
      <point x="1501" y="627" type="curve" smooth="yes"/>
      <point x="167" y="627" type="line" smooth="yes"/>
      <point x="111" y="627"/>
      <point x="74" y="579"/>
    </contour>
  </outline>
</glyph>
<glyph name="dagger" format="2">
  <advance width="991"/>
  <unicode hex="2020"/>
  <outline>
    <contour>
      <point x="581" y="953" type="curve" smooth="yes"/>
      <point x="546" y="809"/>
      <point x="334" y="739"/>
      <point x="284" y="537" type="curve" smooth="yes"/>
      <point x="241" y="367"/>
      <point x="351" y="177"/>
      <point x="252" y="-220" type="curve" smooth="yes"/>
      <point x="241" y="-267"/>
      <point x="261" y="-290"/>
      <point x="317" y="-290" type="curve" smooth="yes"/>
      <point x="366" y="-290"/>
      <point x="398" y="-270"/>
      <point x="410" y="-222" type="curve" smooth="yes"/>
      <point x="508" y="175"/>
      <point x="712" y="362"/>
      <point x="754" y="534" type="curve" smooth="yes"/>
      <point x="808" y="747"/>
      <point x="625" y="811"/>
      <point x="660" y="953" type="curve" smooth="yes"/>
      <point x="690" y="1078"/>
      <point x="857" y="1171"/>
      <point x="884" y="1281" type="curve" smooth="yes"/>
      <point x="902" y="1357"/>
      <point x="862" y="1407"/>
      <point x="733" y="1407" type="curve" smooth="yes"/>
      <point x="609" y="1407"/>
      <point x="541" y="1363"/>
      <point x="521" y="1281" type="curve" smooth="yes"/>
      <point x="494" y="1172"/>
      <point x="612" y="1078"/>
    </contour>
    <contour>
      <point x="632" y="994" type="curve" smooth="yes"/>
      <point x="506" y="994"/>
      <point x="451" y="1145"/>
      <point x="341" y="1145" type="curve" smooth="yes"/>
      <point x="269" y="1145"/>
      <point x="208" y="1088"/>
      <point x="173" y="952" type="curve" smooth="yes"/>
      <point x="141" y="821"/>
      <point x="167" y="761"/>
      <point x="244" y="761" type="curve" smooth="yes"/>
      <point x="353" y="761"/>
      <point x="485" y="910"/>
      <point x="610" y="910" type="curve" smooth="yes"/>
      <point x="736" y="910"/>
      <point x="793" y="761"/>
      <point x="901" y="761" type="curve" smooth="yes"/>
      <point x="978" y="761"/>
      <point x="1035" y="821"/>
      <point x="1068" y="952" type="curve" smooth="yes"/>
      <point x="1102" y="1088"/>
      <point x="1070" y="1145"/>
      <point x="998" y="1145" type="curve" smooth="yes"/>
      <point x="889" y="1145"/>
      <point x="757" y="994"/>
    </contour>
  </outline>
</glyph>
<glyph name="bracketangleleft" format="2">
  <advance width="750"/>
  <unicode hex="27E8"/>
  <outline>
    <contour>
      <point x="470" y="565" type="line"/>
      <point x="927" y="1289" type="line" smooth="yes"/>
      <point x="975" y="1363"/>
      <point x="966" y="1414"/>
      <point x="910" y="1414" type="curve" smooth="yes"/>
      <point x="866" y="1414"/>
      <point x="821" y="1379"/>
      <point x="756" y="1308" type="curve" smooth="yes"/>
      <point x="265" y="771" type="line" smooth="yes"/>
      <point x="201" y="699"/>
      <point x="160" y="655"/>
      <point x="142" y="584" type="curve" smooth="yes"/>
      <point x="124" y="511"/>
      <point x="144" y="467"/>
      <point x="171" y="395" type="curve" smooth="yes"/>
      <point x="393" y="-201" type="line" smooth="yes"/>
      <point x="412" y="-252"/>
      <point x="438" y="-284"/>
      <point x="493" y="-284" type="curve" smooth="yes"/>
      <point x="545" y="-284"/>
      <point x="577" y="-225"/>
      <point x="568" y="-159" type="curve" smooth="yes"/>
    </contour>
  </outline>
</glyph>
<glyph name="b.alt" format="2">
  <advance width="1031"/>
  <outline>
    <contour>
      <point x="245" y="1032" type="curve" smooth="yes"/>
      <point x="31" y="240" type="line" smooth="yes"/>
      <point x="-20" y="52"/>
      <point x="30" y="-20"/>
      <point x="120" y="-20" type="curve" smooth="yes"/>
      <point x="170" y="-20"/>
      <point x="207" y="-2"/>
      <point x="244" y="37" type="curve" smooth="yes"/>
      <point x="369" y="168" type="line"/>
      <point x="242" y="250" type="line"/>
      <point x="242" y="55"/>
      <point x="354" y="-21"/>
      <point x="500" y="-21" type="curve" smooth="yes"/>
      <point x="781" y="-21"/>
      <point x="1021" y="259"/>
      <point x="1020" y="613" type="curve" smooth="yes"/>
      <point x="1020" y="804"/>
      <point x="929" y="916"/>
      <point x="770" y="916" type="curve" smooth="yes"/>
      <point x="617" y="916"/>
      <point x="510" y="810"/>
      <point x="422" y="599" type="curve"/>
      <point x="497" y="631" type="line"/>
      <point x="638" y="1155" type="line" smooth="yes"/>
      <point x="688" y="1342"/>
      <point x="653" y="1470"/>
      <point x="468" y="1470" type="curve" smooth="yes"/>
      <point x="321.0" y="1470.0"/>
      <point x="201" y="1388"/>
      <point x="138" y="1266" type="curve" smooth="yes"/>
      <point x="92" y="1173"/>
      <point x="120" y="1120"/>
      <point x="160" y="1120" type="curve" smooth="yes"/>
      <point x="175.0" y="1120.0"/>
      <point x="186" y="1127"/>
      <point x="201" y="1136" type="curve" smooth="yes"/>
      <point x="219" y="1146"/>
      <point x="229" y="1149"/>
      <point x="242" y="1149" type="curve" smooth="yes"/>
      <point x="266" y="1149"/>
      <point x="271" y="1127"/>
    </contour>
    <contour>
      <point x="594" y="660" type="curve" smooth="yes"/>
      <point x="625" y="660"/>
      <point x="646" y="641"/>
      <point x="646" y="585" type="curve" smooth="yes"/>
      <point x="646" y="470"/>
      <point x="552" y="188"/>
      <point x="455" y="188" type="curve" smooth="yes"/>
      <point x="424" y="188"/>
      <point x="403" y="207"/>
      <point x="403" y="263" type="curve" smooth="yes"/>
      <point x="403" y="378"/>
      <point x="497" y="660"/>
    </contour>
  </outline>
</glyph>
<glyph name="brevecmb" format="2">
  <advance width="624"/>
  <outline>
    <contour>
      <point x="365" y="1195" type="curve" smooth="yes"/>
      <point x="306" y="1195"/>
      <point x="272" y="1219"/>
      <point x="250" y="1275" type="curve" smooth="yes"/>
      <point x="237" y="1311"/>
      <point x="220" y="1329"/>
      <point x="192" y="1329" type="curve" smooth="yes"/>
      <point x="148" y="1329"/>
      <point x="113" y="1286"/>
      <point x="102" y="1225" type="curve" smooth="yes"/>
      <point x="74" y="1054"/>
      <point x="167" y="965"/>
      <point x="307" y="965" type="curve" smooth="yes"/>
      <point x="446" y="965"/>
      <point x="583" y="1054"/>
      <point x="640" y="1225" type="curve" smooth="yes"/>
      <point x="661" y="1286"/>
      <point x="648" y="1329"/>
      <point x="603" y="1329" type="curve" smooth="yes"/>
      <point x="576" y="1329"/>
      <point x="549" y="1311"/>
      <point x="519" y="1275" type="curve" smooth="yes"/>
      <point x="468" y="1219"/>
      <point x="423" y="1195"/>
    </contour>
  </outline>
</glyph>
<glyph name="brevetilde" format="2">
  <advance width="623"/>
  <outline>
    <contour>
      <point x="359" y="1177" type="curve" smooth="yes"/>
      <point x="300" y="1177"/>
      <point x="268" y="1204"/>
      <point x="244" y="1257" type="curve" smooth="yes"/>
      <point x="229" y="1292"/>
      <point x="213" y="1311"/>
      <point x="186" y="1311" type="curve" smooth="yes"/>
      <point x="141" y="1311"/>
      <point x="106" y="1268"/>
      <point x="96" y="1206" type="curve" smooth="yes"/>
      <point x="73" y="1058"/>
      <point x="156" y="966"/>
      <point x="305" y="966" type="curve" smooth="yes"/>
      <point x="454" y="966"/>
      <point x="584" y="1058"/>
      <point x="633" y="1206" type="curve" smooth="yes"/>
      <point x="655" y="1268"/>
      <point x="642" y="1311"/>
      <point x="597" y="1311" type="curve" smooth="yes"/>
      <point x="570" y="1311"/>
      <point x="545" y="1292"/>
      <point x="512" y="1257" type="curve" smooth="yes"/>
      <point x="462" y="1204"/>
      <point x="417" y="1177"/>
    </contour>
    <contour>
      <point x="517" y="1341" type="curve" smooth="yes"/>
      <point x="597" y="1341"/>
      <point x="680" y="1408"/>
      <point x="711" y="1532" type="curve" smooth="yes"/>
      <point x="721" y="1571"/>
      <point x="709" y="1594"/>
      <point x="681" y="1597" type="curve" smooth="yes"/>
      <point x="650" y="1601"/>
      <point x="633" y="1591"/>
      <point x="604" y="1563" type="curve" smooth="yes"/>
      <point x="579" y="1538"/>
      <point x="562" y="1529"/>
      <point x="547" y="1529" type="curve" smooth="yes"/>
      <point x="490" y="1529"/>
      <point x="445" y="1609"/>
      <point x="349" y="1609" type="curve" smooth="yes"/>
      <point x="268" y="1609"/>
      <point x="184" y="1542"/>
      <point x="154" y="1419" type="curve" smooth="yes"/>
      <point x="144" y="1379"/>
      <point x="156" y="1355"/>
      <point x="184" y="1352" type="curve" smooth="yes"/>
      <point x="216" y="1350"/>
      <point x="232" y="1360"/>
      <point x="262" y="1387" type="curve" smooth="yes"/>
      <point x="286" y="1411"/>
      <point x="303" y="1421"/>
      <point x="318" y="1421" type="curve" smooth="yes"/>
      <point x="375" y="1421"/>
      <point x="422" y="1341"/>
    </contour>
  </outline>
</glyph>
<glyph name="caroncmb" format="2">
  <advance width="690"/>
  <outline>
    <contour>
      <point x="467" y="1119" type="line"/>
      <point x="294" y="1119" type="line"/>
      <point x="602" y="1337" type="line" smooth="yes"/>
      <point x="656" y="1374"/>
      <point x="701" y="1370"/>
      <point x="722" y="1343" type="curve" smooth="yes"/>
      <point x="739" y="1322"/>
      <point x="734" y="1280"/>
      <point x="686" y="1231" type="curve" smooth="yes"/>
      <point x="514" y="1053" type="line" smooth="yes"/>
      <point x="453" y="992"/>
      <point x="405" y="956"/>
      <point x="340" y="956" type="curve" smooth="yes"/>
      <point x="275" y="956"/>
      <point x="245" y="992"/>
      <point x="215" y="1053" type="curve" smooth="yes"/>
      <point x="132" y="1231" type="line" smooth="yes"/>
      <point x="108" y="1280"/>
      <point x="124" y="1322"/>
      <point x="152" y="1343" type="curve" smooth="yes"/>
      <point x="186" y="1370"/>
      <point x="234" y="1374"/>
      <point x="269" y="1337" type="curve" smooth="yes"/>
    </contour>
  </outline>
</glyph>
<glyph name="circumflexgrave" format="2">
  <advance width="691"/>
  <outline>
    <contour>
      <point x="473" y="1157" type="line"/>
      <point x="179" y="992" type="line" smooth="yes"/>
      <point x="122" y="960"/>
      <point x="80" y="959"/>
      <point x="60" y="985" type="curve" smooth="yes"/>
      <point x="43" y="1006"/>
      <point x="43" y="1054"/>
      <point x="96" y="1097" type="curve" smooth="yes"/>
      <point x="255" y="1227" type="line" smooth="yes"/>
      <point x="323" y="1282"/>
      <point x="365" y="1325"/>
      <point x="429" y="1325" type="curve" smooth="yes"/>
      <point x="495" y="1325"/>
      <point x="513" y="1282"/>
      <point x="554" y="1227" type="curve" smooth="yes"/>
      <point x="650" y="1097" type="line" smooth="yes"/>
      <point x="681" y="1054"/>
      <point x="657" y="1006"/>
      <point x="630" y="985" type="curve" smooth="yes"/>
      <point x="596" y="959"/>
      <point x="554" y="960"/>
      <point x="513" y="992" type="curve" smooth="yes"/>
      <point x="301" y="1157" type="line"/>
    </contour>
    <contour>
      <point x="802" y="1399" type="line" smooth="yes"/>
      <point x="801" y="1500"/>
      <point x="776" y="1567"/>
      <point x="689" y="1561" type="curve" smooth="yes"/>
      <point x="617" y="1558"/>
      <point x="558" y="1497"/>
      <point x="542" y="1430" type="curve" smooth="yes"/>
      <point x="528" y="1366"/>
      <point x="552" y="1327"/>
      <point x="615" y="1271" type="curve" smooth="yes"/>
      <point x="694" y="1203" type="line" smooth="yes"/>
      <point x="720" y="1185"/>
      <point x="751" y="1179"/>
      <point x="774" y="1200" type="curve" smooth="yes"/>
      <point x="802" y="1218"/>
      <point x="804" y="1248"/>
      <point x="804" y="1278" type="curve" smooth="yes"/>
    </contour>
  </outline>
</glyph>
<glyph name="circumflexhook.cap" format="2">
  <advance width="714"/>
  <outline>
    <contour>
      <point x="497" y="1252" type="line"/>
      <point x="181" y="1074" type="line" smooth="yes"/>
      <point x="122" y="1041"/>
      <point x="78" y="1040"/>
      <point x="56" y="1067" type="curve" smooth="yes"/>
      <point x="38" y="1089"/>
      <point x="41" y="1135"/>
      <point x="94" y="1181" type="curve" smooth="yes"/>
      <point x="276" y="1347" type="line" smooth="yes"/>
      <point x="344" y="1406"/>
      <point x="390" y="1446"/>
      <point x="458" y="1446" type="curve" smooth="yes"/>
      <point x="526" y="1446"/>
      <point x="550" y="1406"/>
      <point x="589" y="1347" type="curve" smooth="yes"/>
      <point x="689" y="1181" type="line" smooth="yes"/>
      <point x="718" y="1135"/>
      <point x="696" y="1089"/>
      <point x="668" y="1067" type="curve" smooth="yes"/>
      <point x="632" y="1040"/>
      <point x="589" y="1041"/>
      <point x="546" y="1074" type="curve" smooth="yes"/>
      <point x="319" y="1252" type="line"/>
    </contour>
    <contour>
      <point x="737" y="1291" type="curve" smooth="yes"/>
      <point x="745" y="1319"/>
      <point x="764" y="1344"/>
      <point x="815" y="1353" type="curve" smooth="yes"/>
      <point x="903" y="1367"/>
      <point x="919" y="1410"/>
      <point x="932" y="1464" type="curve" smooth="yes"/>
      <point x="941" y="1505"/>
      <point x="933" y="1526"/>
      <point x="898" y="1526" type="curve" smooth="yes"/>
      <point x="868" y="1526"/>
      <point x="845" y="1510"/>
      <point x="839" y="1482" type="curve" smooth="yes"/>
      <point x="835" y="1466" type="line" smooth="yes"/>
      <point x="821" y="1414"/>
      <point x="781" y="1388"/>
      <point x="721" y="1388" type="curve" smooth="yes"/>
      <point x="669" y="1388"/>
      <point x="640" y="1418"/>
      <point x="654" y="1472" type="curve" smooth="yes"/>
      <point x="676" y="1561"/>
      <point x="795" y="1635"/>
      <point x="935" y="1635" type="curve" smooth="yes"/>
      <point x="1105" y="1635"/>
      <point x="1164" y="1562"/>
      <point x="1138" y="1456" type="curve" smooth="yes"/>
      <point x="1103" y="1321"/>
      <point x="963" y="1236"/>
      <point x="790" y="1234" type="curve" smooth="yes"/>
      <point x="743" y="1234"/>
      <point x="728" y="1256"/>
    </contour>
  </outline>
</glyph>
<glyph name="circumflexhook" format="2">
  <advance width="684"/>
  <outline>
    <contour>
      <point x="473" y="1157" type="line"/>
      <point x="179" y="992" type="line" smooth="yes"/>
      <point x="122" y="960"/>
      <point x="80" y="959"/>
      <point x="60" y="985" type="curve" smooth="yes"/>
      <point x="43" y="1006"/>
      <point x="43" y="1054"/>
      <point x="96" y="1097" type="curve" smooth="yes"/>
      <point x="255" y="1227" type="line" smooth="yes"/>
      <point x="323" y="1282"/>
      <point x="365" y="1325"/>
      <point x="429" y="1325" type="curve" smooth="yes"/>
      <point x="495" y="1325"/>
      <point x="513" y="1282"/>
      <point x="554" y="1227" type="curve" smooth="yes"/>
      <point x="650" y="1097" type="line" smooth="yes"/>
      <point x="681" y="1054"/>
      <point x="657" y="1006"/>
      <point x="630" y="985" type="curve" smooth="yes"/>
      <point x="596" y="959"/>
      <point x="554" y="960"/>
      <point x="513" y="992" type="curve" smooth="yes"/>
      <point x="301" y="1157" type="line"/>
    </contour>
    <contour>
      <point x="626" y="1227" type="curve" smooth="yes"/>
      <point x="634" y="1255"/>
      <point x="652" y="1279"/>
      <point x="700" y="1286" type="curve" smooth="yes"/>
      <point x="777" y="1300"/>
      <point x="789" y="1335"/>
      <point x="800" y="1380" type="curve" smooth="yes"/>
      <point x="808" y="1417"/>
      <point x="802" y="1438"/>
      <point x="774" y="1438" type="curve" smooth="yes"/>
      <point x="747" y="1438"/>
      <point x="728" y="1424"/>
      <point x="722" y="1400" type="curve" smooth="yes"/>
      <point x="719" y="1387" type="line" smooth="yes"/>
      <point x="708" y="1343"/>
      <point x="672" y="1319"/>
      <point x="617" y="1319" type="curve" smooth="yes"/>
      <point x="568" y="1319"/>
      <point x="542" y="1349"/>
      <point x="555" y="1397" type="curve" smooth="yes"/>
      <point x="575" y="1478"/>
      <point x="682" y="1544"/>
      <point x="808" y="1544" type="curve" smooth="yes"/>
      <point x="963" y="1544"/>
      <point x="1016" y="1476"/>
      <point x="991" y="1377" type="curve" smooth="yes"/>
      <point x="959" y="1249"/>
      <point x="830" y="1170"/>
      <point x="675" y="1171" type="curve" smooth="yes"/>
      <point x="632" y="1171"/>
      <point x="618" y="1192"/>
    </contour>
  </outline>
</glyph>
<glyph name="circumflextilde" format="2">
  <advance width="698"/>
  <outline>
    <contour>
      <point x="468" y="1129" type="line"/>
      <point x="182" y="991" type="line" smooth="yes"/>
      <point x="122" y="962"/>
      <point x="82" y="958"/>
      <point x="62" y="984" type="curve" smooth="yes"/>
      <point x="45" y="1006"/>
      <point x="43" y="1055"/>
      <point x="99" y="1096" type="curve" smooth="yes"/>
      <point x="254" y="1213" type="line" smooth="yes"/>
      <point x="325" y="1264"/>
      <point x="363" y="1309"/>
      <point x="428" y="1309" type="curve" smooth="yes"/>
      <point x="493" y="1309"/>
      <point x="509" y="1264"/>
      <point x="553" y="1213" type="curve" smooth="yes"/>
      <point x="653" y="1096" type="line" smooth="yes"/>
      <point x="688" y="1055"/>
      <point x="660" y="1006"/>
      <point x="632" y="984" type="curve" smooth="yes"/>
      <point x="598" y="958"/>
      <point x="561" y="962"/>
      <point x="515" y="991" type="curve" smooth="yes"/>
      <point x="296" y="1129" type="line"/>
    </contour>
    <contour>
      <point x="567" y="1333" type="curve" smooth="yes"/>
      <point x="652" y="1333"/>
      <point x="740" y="1406"/>
      <point x="774" y="1541" type="curve" smooth="yes"/>
      <point x="787" y="1597"/>
      <point x="777" y="1626"/>
      <point x="734" y="1626" type="curve" smooth="yes"/>
      <point x="705" y="1626"/>
      <point x="684" y="1615"/>
      <point x="665" y="1586" type="curve" smooth="yes"/>
      <point x="642" y="1549"/>
      <point x="621" y="1533"/>
      <point x="590" y="1533" type="curve" smooth="yes"/>
      <point x="533" y="1533"/>
      <point x="487" y="1614"/>
      <point x="389" y="1614" type="curve" smooth="yes"/>
      <point x="303" y="1614"/>
      <point x="217" y="1541"/>
      <point x="184" y="1407" type="curve" smooth="yes"/>
      <point x="169" y="1351"/>
      <point x="179" y="1321"/>
      <point x="222" y="1321" type="curve" smooth="yes"/>
      <point x="252" y="1321"/>
      <point x="272" y="1332"/>
      <point x="292" y="1363" type="curve" smooth="yes"/>
      <point x="315" y="1398"/>
      <point x="337" y="1414"/>
      <point x="366" y="1414" type="curve" smooth="yes"/>
      <point x="423" y="1414"/>
      <point x="469" y="1333"/>
    </contour>
  </outline>
</glyph>
<glyph name="colonmonetary" format="2">
  <advance width="1255"/>
  <outline>
    <contour>
      <point x="1121" y="314" type="curve" smooth="yes"/>
      <point x="1178" y="423"/>
      <point x="1151" y="475"/>
      <point x="1100" y="493" type="curve" smooth="yes"/>
      <point x="1062" y="506"/>
      <point x="1024" y="487"/>
      <point x="964" y="413" type="curve" smooth="yes"/>
      <point x="894" y="323"/>
      <point x="809" y="264"/>
      <point x="697" y="264" type="curve" smooth="yes"/>
      <point x="549" y="264"/>
      <point x="489" y="398"/>
      <point x="561" y="742" type="curve" smooth="yes"/>
      <point x="632" y="1090"/>
      <point x="781" y="1232"/>
      <point x="921" y="1232" type="curve" smooth="yes"/>
      <point x="1012" y="1232"/>
      <point x="1062" y="1154"/>
      <point x="1062" y="1022" type="curve" smooth="yes"/>
      <point x="1062" y="954"/>
      <point x="1081" y="922"/>
      <point x="1148" y="922" type="curve" smooth="yes"/>
      <point x="1196" y="922"/>
      <point x="1226" y="967"/>
      <point x="1258" y="1028" type="curve" smooth="yes"/>
      <point x="1331" y="1168" type="line" smooth="yes"/>
      <point x="1361" y="1226"/>
      <point x="1338" y="1287"/>
      <point x="1280" y="1324" type="curve" smooth="yes"/>
      <point x="1224" y="1362"/>
      <point x="1118" y="1400"/>
      <point x="977" y="1400" type="curve" smooth="yes"/>
      <point x="520" y="1400"/>
      <point x="182" y="1116"/>
      <point x="93" y="732" type="curve" smooth="yes"/>
      <point x="-12" y="280"/>
      <point x="186" y="0"/>
      <point x="581" y="0" type="curve" smooth="yes"/>
      <point x="832" y="0"/>
      <point x="1037" y="146"/>
    </contour>
    <contour>
      <point x="549" y="-163" type="curve" smooth="yes"/>
      <point x="576" y="-172"/>
      <point x="611" y="-155"/>
      <point x="623" y="-120" type="curve" smooth="yes"/>
      <point x="716" y="148" type="line"/>
      <point x="1151" y="1247" type="line"/>
      <point x="1258" y="1468" type="line" smooth="yes"/>
      <point x="1272" y="1498"/>
      <point x="1255" y="1526"/>
      <point x="1228" y="1535" type="curve" smooth="yes"/>
      <point x="1203" y="1543"/>
      <point x="1167" y="1527"/>
      <point x="1156" y="1494" type="curve" smooth="yes"/>
      <point x="1072" y="1250" type="line"/>
      <point x="639" y="154" type="line"/>
      <point x="523" y="-90" type="line" smooth="yes"/>
      <point x="507" y="-125"/>
      <point x="523" y="-156"/>
    </contour>
    <contour>
      <point x="373" y="-143" type="curve" smooth="yes"/>
      <point x="401" y="-152"/>
      <point x="437" y="-135"/>
      <point x="449" y="-100" type="curve" smooth="yes"/>
      <point x="537" y="162" type="line"/>
      <point x="977" y="1271" type="line"/>
      <point x="1082" y="1488" type="line" smooth="yes"/>
      <point x="1097" y="1518"/>
      <point x="1080" y="1546"/>
      <point x="1055" y="1555" type="curve" smooth="yes"/>
      <point x="1028" y="1563"/>
      <point x="991" y="1547"/>
      <point x="980" y="1514" type="curve" smooth="yes"/>
      <point x="902" y="1281" type="line"/>
      <point x="463" y="174" type="line"/>
      <point x="348" y="-70" type="line" smooth="yes"/>
      <point x="332" y="-105"/>
      <point x="349" y="-136"/>
    </contour>
  </outline>
</glyph>
<glyph name="commaaccentbelowcmb" format="2">
  <advance width="407"/>
  <outline>
    <contour>
      <point x="226" y="-318" type="curve" smooth="yes"/>
      <point x="243" y="-318" type="line" smooth="yes"/>
      <point x="267" y="-318"/>
      <point x="273" y="-327"/>
      <point x="269" y="-342" type="curve" smooth="yes"/>
      <point x="264" y="-364"/>
      <point x="246" y="-379"/>
      <point x="140" y="-411" type="curve" smooth="yes"/>
      <point x="92" y="-425"/>
      <point x="69" y="-454"/>
      <point x="67" y="-490" type="curve" smooth="yes"/>
      <point x="65" y="-528"/>
      <point x="88" y="-551"/>
      <point x="141" y="-535" type="curve" smooth="yes"/>
      <point x="329" y="-485"/>
      <point x="411" y="-383"/>
      <point x="446" y="-240" type="curve" smooth="yes"/>
      <point x="475" y="-124"/>
      <point x="422" y="-60"/>
      <point x="322" y="-60" type="curve" smooth="yes"/>
      <point x="238" y="-60"/>
      <point x="155" y="-116"/>
      <point x="134" y="-200" type="curve" smooth="yes"/>
      <point x="116" y="-272"/>
      <point x="145" y="-318"/>
    </contour>
  </outline>
</glyph>
<glyph name="commaturnedabovecmb" format="2">
  <advance width="407"/>
  <outline>
    <contour>
      <point x="302" y="1217" type="curve" smooth="yes"/>
      <point x="284" y="1217" type="line" smooth="yes"/>
      <point x="261" y="1217"/>
      <point x="255" y="1225"/>
      <point x="259" y="1241" type="curve" smooth="yes"/>
      <point x="264" y="1263"/>
      <point x="282" y="1278"/>
      <point x="388" y="1310" type="curve" smooth="yes"/>
      <point x="436" y="1324"/>
      <point x="459" y="1354"/>
      <point x="461" y="1389" type="curve" smooth="yes"/>
      <point x="463" y="1427"/>
      <point x="439" y="1450"/>
      <point x="387" y="1434" type="curve" smooth="yes"/>
      <point x="198" y="1383"/>
      <point x="117" y="1282"/>
      <point x="82" y="1139" type="curve" smooth="yes"/>
      <point x="53" y="1023"/>
      <point x="106" y="959"/>
      <point x="206" y="959" type="curve" smooth="yes"/>
      <point x="290" y="959"/>
      <point x="372" y="1015"/>
      <point x="394" y="1098" type="curve" smooth="yes"/>
      <point x="412" y="1171"/>
      <point x="383" y="1217"/>
    </contour>
  </outline>
</glyph>
<glyph name="d.alt" format="2">
  <advance width="1081"/>
  <outline>
    <contour>
      <point x="1157" y="1155" type="line" smooth="yes"/>
      <point x="1210" y="1339"/>
      <point x="1172" y="1470"/>
      <point x="987" y="1470" type="curve" smooth="yes"/>
      <point x="840" y="1470"/>
      <point x="720" y="1388"/>
      <point x="657" y="1266" type="curve" smooth="yes"/>
      <point x="611" y="1173"/>
      <point x="636" y="1120"/>
      <point x="676" y="1120" type="curve" smooth="yes"/>
      <point x="691" y="1120"/>
      <point x="702" y="1127"/>
      <point x="717" y="1136" type="curve" smooth="yes"/>
      <point x="735" y="1146"/>
      <point x="745" y="1149"/>
      <point x="757" y="1149" type="curve" smooth="yes"/>
      <point x="780" y="1149"/>
      <point x="788" y="1127"/>
      <point x="761" y="1032" type="curve" smooth="yes"/>
      <point x="617" y="518" type="line" smooth="yes"/>
      <point x="575" y="366"/>
      <point x="492" y="236"/>
      <point x="428" y="236" type="curve" smooth="yes"/>
      <point x="408" y="236"/>
      <point x="390" y="255"/>
      <point x="390" y="305" type="curve" smooth="yes"/>
      <point x="390" y="473"/>
      <point x="486" y="710"/>
      <point x="594" y="710" type="curve" smooth="yes"/>
      <point x="634" y="710"/>
      <point x="651" y="686"/>
      <point x="648" y="620" type="curve"/>
      <point x="934" y="635" type="line"/>
      <point x="943" y="786"/>
      <point x="846" y="916"/>
      <point x="657" y="916" type="curve" smooth="yes"/>
      <point x="252" y="916"/>
      <point x="12" y="539"/>
      <point x="12" y="248" type="curve" smooth="yes"/>
      <point x="12" y="67"/>
      <point x="102" y="-20"/>
      <point x="261" y="-20" type="curve" smooth="yes"/>
      <point x="411" y="-20"/>
      <point x="530" y="55"/>
      <point x="610" y="246" type="curve"/>
      <point x="589" y="359" type="line"/>
      <point x="579" y="292"/>
      <point x="575" y="230"/>
      <point x="575" y="156" type="curve" smooth="yes"/>
      <point x="575" y="47"/>
      <point x="637" y="-20"/>
      <point x="775" y="-20" type="curve" smooth="yes"/>
      <point x="896" y="-20"/>
      <point x="1014" y="62"/>
      <point x="1057" y="196" type="curve" smooth="yes"/>
      <point x="1086" y="286"/>
      <point x="1069" y="324"/>
      <point x="1028" y="324" type="curve" smooth="yes"/>
      <point x="1019" y="324"/>
      <point x="1010" y="321"/>
      <point x="999" y="314" type="curve" smooth="yes"/>
      <point x="985" y="305"/>
      <point x="976" y="300"/>
      <point x="963" y="300" type="curve" smooth="yes"/>
      <point x="933" y="300"/>
      <point x="923" y="335"/>
      <point x="941" y="398" type="curve" smooth="yes"/>
    </contour>
  </outline>
</glyph>
<glyph name="dotaccentcmb" format="2">
  <advance width="488"/>
  <outline>
    <contour>
      <point x="237" y="957" type="curve" smooth="yes"/>
      <point x="366" y="957"/>
      <point x="455" y="1022"/>
      <point x="483" y="1134" type="curve" smooth="yes"/>
      <point x="511" y="1243"/>
      <point x="455" y="1308"/>
      <point x="326" y="1308" type="curve" smooth="yes"/>
      <point x="199" y="1308"/>
      <point x="108" y="1243"/>
      <point x="81" y="1134" type="curve" smooth="yes"/>
      <point x="52" y="1020"/>
      <point x="111" y="957"/>
    </contour>
  </outline>
</glyph>
<glyph name="dotbelowcmb" format="2">
  <advance width="488"/>
  <outline>
    <contour>
      <point x="248" y="-411" type="curve" smooth="yes"/>
      <point x="377" y="-411"/>
      <point x="466" y="-346"/>
      <point x="494" y="-235" type="curve" smooth="yes"/>
      <point x="521" y="-125"/>
      <point x="466" y="-60"/>
      <point x="337" y="-60" type="curve" smooth="yes"/>
      <point x="210" y="-60"/>
      <point x="119" y="-125"/>
      <point x="91" y="-235" type="curve" smooth="yes"/>
      <point x="63" y="-348"/>
      <point x="122" y="-411"/>
    </contour>
  </outline>
</glyph>
<glyph name="gravedoublecmb" format="2">
  <advance width="753"/>
  <outline>
    <contour>
      <point x="400" y="1222" type="line" smooth="yes"/>
      <point x="394" y="1326"/>
      <point x="366" y="1397"/>
      <point x="272" y="1389" type="curve" smooth="yes"/>
      <point x="191" y="1382"/>
      <point x="124" y="1311"/>
      <point x="111" y="1241" type="curve" smooth="yes"/>
      <point x="100" y="1170"/>
      <point x="123" y="1126"/>
      <point x="195" y="1072" type="curve" smooth="yes"/>
      <point x="289" y="1001" type="line" smooth="yes"/>
      <point x="314" y="983"/>
      <point x="349" y="979"/>
      <point x="376" y="1000" type="curve" smooth="yes"/>
      <point x="405" y="1022"/>
      <point x="407" y="1052"/>
      <point x="405" y="1088" type="curve" smooth="yes"/>
    </contour>
    <contour>
      <point x="734" y="1212" type="line" smooth="yes"/>
      <point x="735" y="1318"/>
      <point x="714" y="1394"/>
      <point x="622" y="1393" type="curve" smooth="yes"/>
      <point x="541" y="1391"/>
      <point x="472" y="1325"/>
      <point x="453" y="1254" type="curve" smooth="yes"/>
      <point x="439" y="1184"/>
      <point x="456" y="1136"/>
      <point x="523" y="1075" type="curve" smooth="yes"/>
      <point x="610" y="995" type="line" smooth="yes"/>
      <point x="632" y="975"/>
      <point x="667" y="970"/>
      <point x="695" y="988" type="curve" smooth="yes"/>
      <point x="724" y="1009"/>
      <point x="729" y="1039"/>
      <point x="729" y="1076" type="curve" smooth="yes"/>
    </contour>
  </outline>
</glyph>
<glyph name="horncmb" format="2">
  <advance width="602"/>
  <outline>
    <contour>
      <point x="619" y="1046" type="curve" smooth="yes"/>
      <point x="644" y="1147"/>
      <point x="619" y="1205"/>
      <point x="533" y="1205" type="curve" smooth="yes"/>
      <point x="451" y="1205"/>
      <point x="392" y="1152"/>
      <point x="368" y="1058" type="curve" smooth="yes"/>
      <point x="355" y="1006" type="line" smooth="yes"/>
      <point x="333" y="918"/>
      <point x="290" y="878"/>
      <point x="135" y="905" type="curve" smooth="yes"/>
      <point x="95" y="913"/>
      <point x="63" y="888"/>
      <point x="54" y="851" type="curve" smooth="yes"/>
      <point x="46" y="821"/>
      <point x="58" y="799"/>
      <point x="100" y="793" type="curve" smooth="yes"/>
      <point x="373" y="751"/>
      <point x="569" y="845"/>
    </contour>
  </outline>
</glyph>
<glyph name="invertedbrevecmb" format="2">
  <advance width="624"/>
  <outline>
    <contour>
      <point x="338" y="1109" type="curve" smooth="yes"/>
      <point x="397" y="1109"/>
      <point x="430" y="1085"/>
      <point x="453" y="1029" type="curve" smooth="yes"/>
      <point x="465" y="993"/>
      <point x="484" y="975"/>
      <point x="511" y="975" type="curve" smooth="yes"/>
      <point x="555" y="975"/>
      <point x="590" y="1018"/>
      <point x="600" y="1079" type="curve" smooth="yes"/>
      <point x="628" y="1249"/>
      <point x="536" y="1339"/>
      <point x="396" y="1339" type="curve" smooth="yes"/>
      <point x="257" y="1339"/>
      <point x="120" y="1249"/>
      <point x="63" y="1079" type="curve" smooth="yes"/>
      <point x="42" y="1018"/>
      <point x="55" y="975"/>
      <point x="99" y="975" type="curve" smooth="yes"/>
      <point x="128" y="975"/>
      <point x="154" y="993"/>
      <point x="184" y="1029" type="curve" smooth="yes"/>
      <point x="235" y="1085"/>
      <point x="280" y="1109"/>
    </contour>
  </outline>
</glyph>
<glyph name="l.alt" format="2">
  <advance width="577"/>
  <outline>
    <contour>
      <point x="651" y="1155" type="line" smooth="yes"/>
      <point x="708" y="1339"/>
      <point x="666" y="1470"/>
      <point x="481" y="1470" type="curve"/>
      <point x="334" y="1470"/>
      <point x="214" y="1388"/>
      <point x="151" y="1266" type="curve" smooth="yes"/>
      <point x="105" y="1173"/>
      <point x="133" y="1120"/>
      <point x="173" y="1120" type="curve" smooth="yes"/>
      <point x="188.0" y="1120.0"/>
      <point x="199" y="1127"/>
      <point x="214" y="1136" type="curve" smooth="yes"/>
      <point x="232" y="1146"/>
      <point x="242" y="1149"/>
      <point x="254" y="1149.0" type="curve" smooth="yes"/>
      <point x="279" y="1149"/>
      <point x="287" y="1126"/>
      <point x="258" y="1032" type="curve" smooth="yes"/>
      <point x="29" y="295" type="line" smooth="yes"/>
      <point x="-28" y="111"/>
      <point x="14" y="-20.0"/>
      <point x="199" y="-20" type="curve" smooth="yes"/>
      <point x="342.0" y="-20.0"/>
      <point x="456" y="63"/>
      <point x="519" y="184" type="curve" smooth="yes"/>
      <point x="565.0" y="277.0"/>
      <point x="537.0" y="330.0"/>
      <point x="499" y="330.0" type="curve" smooth="yes"/>
      <point x="482.0" y="330.0"/>
      <point x="471.0" y="323.0"/>
      <point x="456" y="314" type="curve" smooth="yes"/>
      <point x="438.0" y="304.0"/>
      <point x="428.0" y="301.0"/>
      <point x="419" y="301.0" type="curve" smooth="yes"/>
      <point x="394.0" y="301.0"/>
      <point x="394" y="327"/>
      <point x="422" y="418" type="curve" smooth="yes"/>
    </contour>
  </outline>
</glyph>
<glyph name="ogonekcmb" format="2">
  <advance width="577"/>
  <outline>
    <contour>
      <point x="557" y="68" type="line"/>
      <point x="267" y="-10"/>
      <point x="136" y="-103"/>
      <point x="99" y="-248" type="curve" smooth="yes"/>
      <point x="70" y="-367"/>
      <point x="129" y="-442"/>
      <point x="278" y="-442" type="curve" smooth="yes"/>
      <point x="405" y="-442"/>
      <point x="513" y="-378"/>
      <point x="569" y="-299" type="curve" smooth="yes"/>
      <point x="608" y="-244"/>
      <point x="593" y="-208"/>
      <point x="570" y="-200" type="curve" smooth="yes"/>
      <point x="548" y="-190"/>
      <point x="528" y="-203"/>
      <point x="502" y="-224" type="curve" smooth="yes"/>
      <point x="474" y="-245"/>
      <point x="455" y="-255"/>
      <point x="432" y="-255" type="curve" smooth="yes"/>
      <point x="399" y="-255"/>
      <point x="381" y="-231"/>
      <point x="393" y="-184" type="curve" smooth="yes"/>
      <point x="410" y="-115"/>
      <point x="463" y="-60"/>
      <point x="570" y="0" type="curve"/>
    </contour>
  </outline>
</glyph>
<glyph name="turnedcommaabovecmb" format="2">
  <advance width="369"/>
  <outline>
    <contour>
      <point x="111" y="1196" type="curve" smooth="yes"/>
      <point x="65" y="1061" type="line" smooth="yes"/>
      <point x="54" y="1025"/>
      <point x="48" y="994"/>
      <point x="71" y="979" type="curve" smooth="yes"/>
      <point x="93" y="966"/>
      <point x="129" y="979"/>
      <point x="158" y="1002" type="curve" smooth="yes"/>
      <point x="277" y="1099" type="line" smooth="yes"/>
      <point x="365" y="1171"/>
      <point x="400" y="1222"/>
      <point x="406" y="1289" type="curve" smooth="yes"/>
      <point x="415" y="1358"/>
      <point x="366" y="1411"/>
      <point x="287" y="1397" type="curve" smooth="yes"/>
      <point x="195" y="1383"/>
      <point x="145" y="1302"/>
    </contour>
  </outline>
</glyph>
